<?xml version="1.0" encoding="utf-8"?>
<!-- Generator: Adobe Illustrator 22.1.0, SVG Export Plug-In . SVG Version: 6.00 Build 0)  -->
<svg version="1.1" id="Ebene_1" xmlns="http://www.w3.org/2000/svg" xmlns:xlink="http://www.w3.org/1999/xlink" x="0px" y="0px"
	 width="14px" height="14px" viewBox="0 0 14 14" style="enable-background:new 0 0 14 14;" xml:space="preserve">
<style type="text/css">
	.st0{fill:#EE4B36;}
	.st1{fill:#07718C;}
</style>
<g id="_x23_ee4b36ff">
	<path class="st0" d="M5.7,0.1c0.1,0,0.2,0,0.3,0c1.6,0.3,3.3,0.5,4.9,0.8c0.2,0,0.4,0,0.5,0.1C11.8,1.2,12,1.7,12,2.1
		c0,3.1,0,6.3,0,9.4c0,0.2,0,0.5-0.1,0.7c-0.1,0.3-0.4,0.7-0.7,0.7c-0.5,0.1-1,0.2-1.5,0.2c-1.2,0.2-2.5,0.4-3.7,0.6
		c-0.2,0-0.4-0.1-0.6-0.2C5.1,13.5,5,13.1,5,12.8C5,9,5,5.3,5,1.6c0-0.2,0-0.5,0-0.7C5.1,0.6,5.4,0.2,5.7,0.1 M6.8,6.4
		c-0.1,0-0.2,0.1-0.3,0.2C6.3,6.9,6.4,7.3,6.6,7.5c0.2,0.1,0.4,0.1,0.6,0c0.3-0.2,0.3-0.6,0.1-0.9C7.2,6.4,7,6.4,6.8,6.4z"/>
</g>
<g id="_x23_07718cff">
	<path class="st1" d="M2,0.9c0.7,0,1.3,0,2,0C4,5,4,9.2,4,13.3c-0.7,0-1.3,0-2,0C2,9.2,2,5,2,0.9z"/>
</g>
</svg>
