<?xml version="1.0" encoding="utf-8"?>
<!-- Generator: Adobe Illustrator 21.0.1, SVG Export Plug-In . SVG Version: 6.00 Build 0)  -->
<svg version="1.1" id="Layer_1" xmlns="http://www.w3.org/2000/svg" xmlns:xlink="http://www.w3.org/1999/xlink" x="0px" y="0px"
	 width="16px" height="16px" viewBox="0 0 16 16" enable-background="new 0 0 16 16" xml:space="preserve">
<path fill="#333333" d="M14,16H2c-1.1,0-2-0.9-2-2V2c0-1.1,0.9-2,2-2h12c1.1,0,2,0.9,2,2v12C16,15.1,15.1,16,14,16z"/>
<g id="_x23_f23735ff">
	<path fill="#FFFFFF" d="M2,4c0.1-0.3,0.4-0.6,0.8-0.6c1.2,0,2.5,0,3.7,0c-0.1,0.3-0.3,0.7-0.4,1c-0.9,0-1.8,0-2.6,0
		C2.9,4.5,2.5,4.2,2,4z"/>
	<path fill="#FFFFFF" d="M6.3,4.8c0-0.5,0.2-0.9,0.4-1.4C7,3.5,7.4,3.8,7.4,4.1c0,1.2,0,2.3,0,3.5C7.3,7.7,7.2,7.8,7.1,7.9
		C6.9,7.6,6.6,7.4,6.4,7.1C6.3,6.3,6.4,5.6,6.3,4.8z"/>
	<path fill="#FFFFFF" d="M8.6,4C8.7,3.7,9,3.4,9.4,3.4c1.2,0,2.5,0,3.7,0c-0.1,0.3-0.3,0.7-0.4,1c-0.9,0-1.8,0-2.7,0
		C9.5,4.5,9.1,4.2,8.6,4z"/>
	<path fill="#FFFFFF" d="M13.4,3.4C13.7,3.5,14,3.8,14,4.1c0,1.2,0,2.3,0,3.5c-0.1,0.1-0.2,0.2-0.3,0.3c-0.2-0.3-0.5-0.5-0.7-0.8
		c0-0.8,0-1.5,0-2.3C12.9,4.3,13.2,3.9,13.4,3.4z"/>
	<path fill="#FFFFFF" d="M8.6,4.3c0.3,0.1,0.7,0.3,1,0.4c0,0.8,0,1.6,0,2.4C9.4,7.4,9.2,7.6,8.9,7.9C8.8,7.8,8.6,7.7,8.6,7.5
		C8.6,6.5,8.6,5.4,8.6,4.3z"/>
	<path fill="#FFFFFF" d="M2,4.3c0.3,0.1,0.7,0.3,1,0.4c0,0.8,0,1.6,0,2.4C2.8,7.4,2.5,7.6,2.3,7.9C2.2,7.8,2,7.7,2,7.5
		C2,6.5,2,5.4,2,4.3z"/>
	<path fill="#FFFFFF" d="M2,8.4c0.1-0.1,0.2-0.2,0.3-0.3C2.5,8.4,2.8,8.6,3,8.9c0,0.8,0,1.6,0,2.4c-0.3,0.1-0.7,0.3-1,0.4
		C2,10.6,2,9.5,2,8.4z"/>
	<path fill="#FFFFFF" d="M6.3,8.9c0.3-0.3,0.5-0.5,0.8-0.8c0.1,0.1,0.3,0.2,0.3,0.4c0,1.1,0,2.2,0,3.3c0,0.4-0.3,0.7-0.6,0.8
		c-0.1-0.3-0.3-0.7-0.4-1C6.3,10.7,6.4,9.8,6.3,8.9z"/>
	<path fill="#FFFFFF" d="M8.6,8.4c0.1-0.1,0.2-0.2,0.3-0.3c0.2,0.2,0.5,0.5,0.7,0.7c0.1,0.1,0.1,0.3,0.1,0.4c0,0.7,0,1.4,0,2.1
		c-0.3,0.1-0.7,0.3-1,0.4C8.6,10.6,8.6,9.5,8.6,8.4z"/>
	<path fill="#FFFFFF" d="M13,8.9c0.3-0.3,0.5-0.5,0.8-0.8c0.1,0.1,0.2,0.2,0.3,0.2c0,1.2,0,2.3,0,3.5c0,0.4-0.3,0.7-0.6,0.8
		c-0.1-0.4-0.4-0.9-0.4-1.4C13,10.5,13,9.7,13,8.9z"/>
	<path fill="#FFFFFF" d="M2,12c0.5-0.1,0.9-0.4,1.4-0.4c0.9,0,1.8,0,2.7,0c0.1,0.3,0.3,0.7,0.4,1c-1.1,0-2.2,0-3.3,0
		c-0.3,0-0.6,0.1-0.8-0.1C2.2,12.4,2.1,12.2,2,12z"/>
	<path fill="#FFFFFF" d="M8.6,12c0.4-0.1,0.7-0.3,1.1-0.4c1,0,2,0,3,0c0.2,0.3,0.3,0.7,0.4,1c-1.2,0-2.5,0-3.7,0
		C9,12.6,8.7,12.3,8.6,12z"/>
</g>
</svg>
