<?xml version="1.0" encoding="utf-8"?>
<!-- Generator: Adobe Illustrator 16.0.0, SVG Export Plug-In . SVG Version: 6.00 Build 0)  -->
<!DOCTYPE svg PUBLIC "-//W3C//DTD SVG 1.1//EN" "http://www.w3.org/Graphics/SVG/1.1/DTD/svg11.dtd">
<svg version="1.1" id="Ebene_1" xmlns="http://www.w3.org/2000/svg" xmlns:xlink="http://www.w3.org/1999/xlink" x="0px" y="0px"
	 width="14px" height="14px" viewBox="18 18 14 14" enable-background="new 18 18 14 14" xml:space="preserve">
<g transform="translate(0 -1028.4)">
	<path fill="#BDC3C7" d="M19.556,1047.138c-0.859,0-1.556,0.664-1.556,1.474v10.315c0,0.811,0.696,1.473,1.556,1.473h4.667h1.555
		h4.668c0.859,0,1.555-0.662,1.555-1.473v-10.315c0-0.81-0.695-1.474-1.555-1.474h-4.668h-1.555H19.556z"/>
	<path fill="#ECF0F1" d="M19.556,1046.401c-0.859,0-1.556,0.66-1.556,1.474v10.315c0,0.814,0.696,1.473,1.556,1.473h4.667h1.555
		h4.668c0.859,0,1.555-0.658,1.555-1.473v-10.315c0-0.813-0.695-1.474-1.555-1.474h-4.668h-1.555H19.556z"/>
	<path fill="#E74C3C" d="M19.556,1046.401c-0.859,0-1.556,0.664-1.556,1.474v2.211h14v-2.211c0-0.81-0.695-1.474-1.555-1.474h-4.668
		h-1.555H19.556z"/>
	<path fill="#C0392B" d="M21.5,1048.243c0,0.61-0.522,1.105-1.167,1.105s-1.167-0.495-1.167-1.105c0-0.61,0.523-1.105,1.167-1.105
		S21.5,1047.633,21.5,1048.243z"/>
	<path fill="#BDC3C7" d="M20.333,1046.401c-0.43,0-0.777,0.198-0.777,0.442v1.326c0,0.245,0.348,0.442,0.777,0.442
		c0.431,0,0.778-0.197,0.778-0.442v-1.326C21.111,1046.599,20.764,1046.401,20.333,1046.401z"/>
	<path fill="#C0392B" d="M30.833,1048.243c0,0.61-0.522,1.105-1.166,1.105s-1.167-0.495-1.167-1.105c0-0.61,0.523-1.105,1.167-1.105
		S30.833,1047.633,30.833,1048.243z"/>
	<path fill="#BDC3C7" d="M29.668,1046.4c-0.43,0-0.778,0.177-0.778,0.443v1.326c0,0.221,0.349,0.442,0.778,0.442
		s0.778-0.221,0.778-0.442v-1.326C30.446,1046.577,30.098,1046.4,29.668,1046.4z"/>
	<rect x="18" y="1050.085" fill="#C0392B" width="14" height="0.736"/>
	<path fill="#95A5A6" d="M21.889,1052.296v0.736h1.556c0.43,0,0.778,0.296,0.778,0.737c0,0.368-0.349,0.737-0.778,0.737h-0.778
		v0.737h0.778c0.43,0,0.778,0.293,0.778,0.735c0,0.368-0.349,0.736-0.778,0.736h-1.556v0.737h1.556c0.86,0,1.556-0.663,1.556-1.474
		c0-0.442-0.208-0.884-0.535-1.104c0.327-0.296,0.535-0.664,0.535-1.105c0-0.811-0.695-1.473-1.556-1.473H21.889z"/>
	<path fill="#95A5A6" d="M25.777,1052.296v0.736h0.777v3.684h-0.777v0.737h0.777h0.778h0.778v-0.737h-0.778v-4.419h-0.778H25.777z"
		/>
</g>
</svg>
