<?xml version="1.0" encoding="utf-8"?>
<!-- Generator: Adobe Illustrator 22.1.0, SVG Export Plug-In . SVG Version: 6.00 Build 0)  -->
<svg version="1.1" id="Layer_1" xmlns="http://www.w3.org/2000/svg" xmlns:xlink="http://www.w3.org/1999/xlink" x="0px" y="0px"
	 width="16px" height="16px" viewBox="0 0 16 16" style="enable-background:new 0 0 16 16;" xml:space="preserve">
<style type="text/css">
	.st0{fill:#91979C;}
</style>
<path class="st0" d="M15.7,2.4L15.2,2c-0.3-0.3-0.9-0.3-1.2,0.1c0,0,0,0,0,0l-7.7,9.2L1.9,6C1.7,5.7,1.3,5.7,1,6c0,0,0,0,0,0
	L0.3,6.6C0,6.9-0.1,7.3,0.2,7.5c0,0,0,0,0,0L5.6,14c0.3,0.4,0.9,0.4,1.3,0.1C6.9,14.1,7,14,7,14l8.7-10.4C16,3.3,16,2.7,15.7,2.4
	C15.7,2.4,15.7,2.4,15.7,2.4z"/>
</svg>
