<?xml version="1.0" encoding="utf-8"?>
<!-- Generator: Adobe Illustrator 16.0.0, SVG Export Plug-In . SVG Version: 6.00 Build 0)  -->
<!DOCTYPE svg PUBLIC "-//W3C//DTD SVG 1.1//EN" "http://www.w3.org/Graphics/SVG/1.1/DTD/svg11.dtd">
<svg version="1.1" id="Ebene_1" xmlns="http://www.w3.org/2000/svg" xmlns:xlink="http://www.w3.org/1999/xlink" x="0px" y="0px"
	 width="50px" height="50px" viewBox="0 0 50 50" enable-background="new 0 0 50 50" xml:space="preserve">
<path fill="#010101" d="M10,35.625C10,38.044,11.956,40,14.375,40c1.206,0,2.332-0.456,3.125-1.25l7.975-7.98l2.137,2.137
	c-0.287,1.051-0.013,2.226,0.819,3.063l3.1,3.1c1.237,1.231,3.218,1.244,4.438,0.025c1.219-1.22,1.206-3.2-0.025-4.438l-3.1-3.101
	c-0.838-0.83-2.013-1.105-3.063-0.817l-2.138-2.133l1.375-1.374c2.925,0.737,6.149-0.032,8.432-2.263
	c1.568-1.537,2.432-3.487,2.55-5.506v-0.106c0-0.682-0.563-1.232-1.256-1.232c-0.345,0-0.656,0.138-0.888,0.356l-0.369,0.362
	l-1.263,1.238c-0.794,0.775-1.925,1.231-3.144,1.231c-1.212,0-2.281-0.531-3.075-1.313c-0.78-0.793-1.318-1.869-1.318-3.081
	c0-1.219,0.456-2.35,1.231-3.144l1.237-1.263l0.362-0.368c0.219-0.231,0.356-0.544,0.356-0.888c0-0.693-0.55-1.256-1.231-1.256
	h-0.106c-2.019,0.118-3.969,0.981-5.506,2.55c-2.231,2.282-2.994,5.507-2.257,8.426l-1.38,1.38l-5.769-5.774V15l-3.75-1.875L10,15
	l1.875,3.75h1.575l5.775,5.769L11.25,32.5C10.457,33.293,10,34.419,10,35.625z M13.125,35.313c0-0.862,0.7-1.563,1.563-1.563
	s1.563,0.7,1.563,1.563s-0.7,1.563-1.563,1.563S13.125,36.175,13.125,35.313z"/>
</svg>
