<?xml version="1.0" encoding="utf-8"?>
<!-- Generator: Adobe Illustrator 25.2.0, SVG Export Plug-In . SVG Version: 6.00 Build 0)  -->
<svg version="1.1" id="Ebene_1" xmlns="http://www.w3.org/2000/svg" xmlns:xlink="http://www.w3.org/1999/xlink" x="0px" y="0px"
	 width="50px" height="50px" viewBox="0 0 50 50" style="enable-background:new 0 0 50 50;" xml:space="preserve">
<path d="M35.5177765,11.5H39.5v14c-1.4311104,0-2.5511093,0-3.9822235,0C35.5177765,20.833334,35.5177765,16.166666,35.5177765,11.5
	z"/>
<path d="M27.3666668,17.5977783c1.4311104,0,2.5511093,0,3.9822235,0c0,4.666666,0,9.3333321,0,13.9999981
	c-1.4311104,0-2.5511112,0-3.9822216,0C27.3666668,26.9311104,27.3666668,22.2644444,27.3666668,17.5977783z"/>
<path d="M11.5,21.5177784c1.3688889,0,2.5511112,0,3.9822216,0c0,3.2977772,0,6.7822208,0,10.0177784
	c-1.4311113,0-2.5511112,0-3.9822216,0C11.5,31.5355568,11.5,21.5177784,11.5,21.5177784z"/>
<path d="M19.4644451,23.6333332c1.4311104,0,2.5511093,0,3.9822216,0c0,1.8666668,0,3.9822216,0,6.0355568
	c-1.4311104,0-2.5511112,0-3.9822216,0C19.4644451,27.3666668,19.4644451,25.5,19.4644451,23.6333332z"/>
<path d="M35.5177765,27.3666668c1.4311104,0,2.5511093,0,3.9822235,0V39.5h-3.9822235
	C35.5177765,35.5177765,35.5177765,31.3488903,35.5177765,27.3666668z"/>
<path d="M19.4644451,31.3488903c1.4311104,0,2.5511093,0,3.9822216,0c0,2.5511112,0,5.3511105,0,8.1511097h-3.9822216
	C19.4644451,36.9488907,19.4644451,34.3977776,19.4644451,31.3488903z"/>
<path d="M11.5,33.6511116c1.3688889,0,2.5511112,0,3.9822216,0c0,1.8666649,0,3.9822235,0,5.8488884H11.5V33.6511116z"/>
<path d="M27.3666668,33.6511116c1.4311104,0,2.5511093,0,3.9822235,0c0,1.8666649,0,3.9822235,0,5.8488884h-3.9822216
	C27.3666668,37.6333351,27.3666668,35.5177765,27.3666668,33.6511116z"/>
</svg>
