<?xml version="1.0" encoding="utf-8"?>
<!-- Generator: Adobe Illustrator 16.0.0, SVG Export Plug-In . SVG Version: 6.00 Build 0)  -->
<!DOCTYPE svg PUBLIC "-//W3C//DTD SVG 1.1//EN" "http://www.w3.org/Graphics/SVG/1.1/DTD/svg11.dtd">
<svg version="1.1" id="Ebene_1" xmlns="http://www.w3.org/2000/svg" xmlns:xlink="http://www.w3.org/1999/xlink" x="0px" y="0px"
	 width="50px" height="50px" viewBox="0 0 50 50" enable-background="new 0 0 50 50" xml:space="preserve">
<g id="_x23_000000ff">
	<path d="M10.965,10c5.231,0,10.462,0,15.695,0c0.529,0.047,1.063,0.045,1.594,0.096c1.943,0.161,3.885,0.64,5.596,1.595
		c1.174,0.656,2.232,1.538,3.029,2.623c1.035,1.441,1.447,3.231,1.563,4.977c0.082,1.928,0.084,3.858,0.082,5.788
		c-0.027,0.666,0.006,1.333-0.021,2c0.01,0.931-0.016,1.861-0.01,2.793c0.012,2.043,0.045,4.089,0.203,6.127
		c0.1,1.229,0.225,2.456,0.34,3.683c-3.014,0-6.027,0-9.041,0c-0.91,0.005-1.82-0.019-2.729-0.01c0-0.143-0.002-0.284-0.002-0.426
		c-0.873,0.319-1.789,0.526-2.715,0.611c-2.095,0.211-4.239,0.234-6.298-0.261c-1.542-0.365-3.017-1.058-4.231-2.083
		c-1.21-1.072-2.1-2.491-2.578-4.033c-0.269-0.857-0.415-1.752-0.444-2.65c-0.01-0.222,0.026-0.447-0.031-0.664
		C10.965,23.444,10.966,16.723,10.965,10 M23.158,12.611c-1.765,0.184-3.527,0.633-5.078,1.518c-0.588,0.317-1.128,0.72-1.609,1.182
		c-1.131,1.1-1.916,2.517-2.403,4.008c2.114,0.364,4.23,0.711,6.346,1.064c0.13-0.309,0.27-0.613,0.433-0.905
		c0.383-0.706,0.933-1.371,1.698-1.673c0.764-0.286,1.564-0.479,2.375-0.563c1.076-0.113,2.189-0.014,3.197,0.393
		c0.271,0.113,0.545,0.232,0.773,0.423c0.434,0.345,0.686,0.871,0.789,1.405c0.158,0.765,0.098,1.551,0.096,2.326
		c-0.625,0.044-1.252,0.06-1.877,0.09c-2.429,0.102-4.883,0.207-7.246,0.822c-1.535,0.399-3.021,1.038-4.302,1.981
		c-0.486,0.34-0.926,0.747-1.3,1.209c-0.825,1.02-1.326,2.282-1.494,3.578c-0.224,1.734,0.13,3.567,1.115,5.026
		c0.336,0.485,0.724,0.945,1.2,1.3c0.731,0.56,1.573,0.965,2.453,1.23c1.696,0.511,3.495,0.537,5.249,0.41
		c0.658-0.054,1.32-0.104,1.961-0.27c1.553-0.388,2.957-1.211,4.24-2.148c-0.002,0.722,0,1.443,0,2.165
		c2.17,0.001,4.34,0.001,6.512,0.001c-0.48-5.122-0.203-10.268-0.277-15.401c-0.045-1.393,0.014-2.809-0.342-4.169
		c-0.217-0.842-0.594-1.661-1.197-2.295c-1.096-1.214-2.619-1.968-4.188-2.363c-1.398-0.363-2.85-0.431-4.289-0.454
		C25.048,12.49,24.101,12.507,23.158,12.611z"/>
	<path d="M27.533,26.336c0.75-0.044,1.502-0.067,2.252-0.109c-0.008,1.012,0.059,2.056-0.275,3.029
		c-0.225,0.688-0.713,1.246-1.236,1.729c-1.078,0.963-2.467,1.525-3.883,1.755c-0.95,0.151-1.95,0.184-2.87-0.138
		c-0.608-0.213-1.177-0.632-1.434-1.238c-0.588-1.307,0.01-2.997,1.265-3.674c0.336-0.175,0.684-0.323,1.038-0.457
		C24.032,26.619,25.793,26.435,27.533,26.336z"/>
</g>
</svg>
