<?xml version="1.0" encoding="utf-8"?>
<!-- Generator: Adobe Illustrator 22.1.0, SVG Export Plug-In . SVG Version: 6.00 Build 0)  -->
<svg version="1.1" id="Ebene_1" xmlns="http://www.w3.org/2000/svg" xmlns:xlink="http://www.w3.org/1999/xlink" x="0px" y="0px"
	 width="50px" height="50px" viewBox="0 0 50 50" style="enable-background:new 0 0 50 50;" xml:space="preserve">
<path d="M38.1,10H11.9c-1,0-1.9,0.8-1.9,1.9v26.3c0,1,0.8,1.9,1.9,1.9h14.1V28.8h-3.8v-4.7h3.8v-2.8c0-3.9,2.2-6.6,5.6-6.6
	c1.7,0,2.8,0,3.7,0v4.7h-1.9c-1.9,0-2.8,0.9-2.8,2.8v1.9h4.7l-0.9,4.7h-3.8V40h7.5c1,0,1.9-0.8,1.9-1.9V11.9
	C40,10.8,39.2,10,38.1,10z"/>
</svg>
