<?xml version="1.0" encoding="utf-8"?>
<!-- Generator: Adobe Illustrator 16.0.0, SVG Export Plug-In . SVG Version: 6.00 Build 0)  -->
<!DOCTYPE svg PUBLIC "-//W3C//DTD SVG 1.1//EN" "http://www.w3.org/Graphics/SVG/1.1/DTD/svg11.dtd">
<svg version="1.1" id="Ebene_1" xmlns="http://www.w3.org/2000/svg" xmlns:xlink="http://www.w3.org/1999/xlink" x="0px" y="0px"
	 width="50px" height="50px" viewBox="0 0 50 50" enable-background="new 0 0 50 50" xml:space="preserve">
<g id="_x23_000000ff">
	<path d="M21.829,10.065c0.517-0.146,1.104,0.115,1.349,0.591c0.407,0.774,1.339,1.235,2.2,1.052
		c0.321-0.083,0.674-0.035,0.953,0.146c0.45,0.277,0.655,0.874,0.488,1.373c-0.248,0.689-0.185,1.484,0.172,2.125
		c0.271,0.492,0.7,0.895,1.211,1.127c0.592,0.273,1.292,0.308,1.905,0.084c0.324-0.125,0.705-0.108,1.011,0.062
		c0.4,0.211,0.647,0.671,0.612,1.122c-0.053,0.704,0.213,1.417,0.688,1.935c0.644,0.712,1.701,1.017,2.621,0.734
		c0.296-0.104,0.632-0.094,0.915,0.044c0.357,0.166,0.617,0.523,0.664,0.914c0.037,0.257-0.017,0.525-0.144,0.751
		c-0.226,0.42-0.278,0.929-0.143,1.386c0.131,0.453,0.438,0.852,0.845,1.09c0.397,0.236,0.89,0.315,1.34,0.202
		c0.378-0.101,0.805,0,1.092,0.268c0.253,0.226,0.394,0.563,0.391,0.9c-0.21,3.045-1.392,6.011-3.314,8.38
		c-1.658,2.061-3.862,3.677-6.331,4.629c-1.753,0.678-3.637,1.019-5.517,0.994c-1.893-0.024-3.782-0.406-5.53-1.134
		c-2.731-1.13-5.107-3.091-6.748-5.549c-0.989-1.475-1.718-3.125-2.133-4.852c-0.604-2.471-0.567-5.092,0.098-7.546
		c0.685-2.506,2.015-4.835,3.841-6.685C16.38,12.141,19.006,10.676,21.829,10.065 M19.747,13.26
		c-2.642,1.224-4.818,3.397-6.083,6.015c-0.073,0.155-0.157,0.305-0.205,0.47c0.954,0.24,1.787,0.912,2.227,1.791
		c0.338,0.654,0.445,1.416,0.333,2.142c-0.143,0.913-0.668,1.76-1.425,2.29c-0.608,0.439-1.361,0.652-2.107,0.641
		c0.173,1.264,0.54,2.5,1.079,3.656c1.315,2.831,3.706,5.149,6.589,6.353c0.388-0.804,1.061-1.47,1.878-1.834
		c0.72-0.329,1.544-0.416,2.319-0.262c0.723,0.142,1.398,0.505,1.924,1.02c0.509,0.501,0.881,1.144,1.044,1.841
		c3.321-0.604,6.334-2.64,8.201-5.443c0.964-1.43,1.63-3.059,1.941-4.754c-0.724-0.115-1.418-0.418-1.989-0.88
		c-1.024-0.814-1.623-2.123-1.58-3.43c-0.607-0.06-1.209-0.219-1.754-0.495c-1.309-0.635-2.308-1.876-2.639-3.293
		c-0.5,0.011-1.003-0.03-1.487-0.162c-1.118-0.288-2.12-0.989-2.786-1.931c-0.608-0.848-0.927-1.89-0.929-2.931
		c-0.956-0.141-1.854-0.625-2.517-1.326c-0.058-0.055-0.1-0.132-0.173-0.167C20.97,12.748,20.348,12.981,19.747,13.26 M12.68,22.021
		c-0.138,0.665-0.248,1.336-0.289,2.015c0.003,0.057-0.022,0.124,0.014,0.175c0.583,0.122,1.192-0.325,1.277-0.91
		C13.802,22.693,13.308,22.035,12.68,22.021 M22.492,37.343c0.789,0.162,1.594,0.246,2.398,0.259
		c-0.261-0.498-0.825-0.821-1.388-0.775C23.114,36.853,22.74,37.042,22.492,37.343z"/>
	<path d="M20.502,14.471c0.664-0.088,1.358,0.048,1.929,0.4c0.657,0.396,1.146,1.06,1.335,1.803c0.144,0.561,0.121,1.163-0.065,1.71
		c-0.246,0.732-0.791,1.359-1.483,1.701c-0.591,0.3-1.286,0.386-1.933,0.245c-0.759-0.16-1.446-0.633-1.863-1.288
		c-0.379-0.577-0.54-1.29-0.458-1.974c0.066-0.574,0.304-1.127,0.676-1.569C19.104,14.942,19.781,14.565,20.502,14.471
		 M20.741,16.842c-0.264,0.075-0.458,0.347-0.428,0.622c0.014,0.309,0.304,0.576,0.614,0.554c0.337-0.006,0.617-0.345,0.561-0.678
		C21.452,16.997,21.074,16.733,20.741,16.842z"/>
	<path d="M21.954,23.222c0.907-0.106,1.847,0.079,2.644,0.526c1.116,0.616,1.937,1.735,2.188,2.985
		c0.198,0.974,0.074,2.018-0.379,2.906c-0.552,1.12-1.601,1.986-2.811,2.303c-0.983,0.267-2.058,0.176-2.981-0.254
		c-1.114-0.51-1.991-1.503-2.364-2.67c-0.289-0.896-0.29-1.885,0.01-2.778c0.312-0.965,0.973-1.811,1.828-2.355
		C20.65,23.525,21.292,23.295,21.954,23.222 M22.23,25.582c-0.898,0.091-1.67,0.839-1.801,1.729c-0.11,0.646,0.116,1.34,0.585,1.799
		c0.385,0.393,0.936,0.621,1.487,0.603c0.649-0.004,1.276-0.355,1.642-0.889c0.295-0.421,0.425-0.956,0.352-1.465
		c-0.069-0.491-0.316-0.955-0.691-1.279C23.379,25.705,22.793,25.515,22.23,25.582z"/>
	<path d="M31.589,26.64c0.588-0.104,1.209-0.03,1.752,0.223c0.572,0.262,1.055,0.713,1.357,1.264c0.336,0.605,0.449,1.33,0.317,2.01
		c-0.134,0.719-0.547,1.379-1.132,1.817c-0.519,0.396-1.175,0.609-1.827,0.592c-0.585-0.009-1.166-0.197-1.644-0.536
		c-0.563-0.396-0.982-0.993-1.158-1.66c-0.193-0.712-0.112-1.494,0.229-2.148C29.894,27.392,30.694,26.794,31.589,26.64
		 M31.994,28.981c-0.264,0.056-0.478,0.306-0.474,0.578c-0.018,0.315,0.261,0.607,0.575,0.61c0.327,0.016,0.62-0.285,0.607-0.609
		C32.707,29.205,32.343,28.898,31.994,28.981z"/>
</g>
</svg>
