<?xml version="1.0" encoding="utf-8"?>
<!-- Generator: Adobe Illustrator 16.0.0, SVG Export Plug-In . SVG Version: 6.00 Build 0)  -->
<!DOCTYPE svg PUBLIC "-//W3C//DTD SVG 1.1//EN" "http://www.w3.org/Graphics/SVG/1.1/DTD/svg11.dtd">
<svg version="1.1"
	 id="svg2" xmlns:dc="http://purl.org/dc/elements/1.1/" xmlns:cc="http://creativecommons.org/ns#" xmlns:rdf="http://www.w3.org/1999/02/22-rdf-syntax-ns#" xmlns:svg="http://www.w3.org/2000/svg"
	 xmlns="http://www.w3.org/2000/svg" xmlns:xlink="http://www.w3.org/1999/xlink" x="0px" y="0px" width="10.8px" height="10.8px"
	 viewBox="0 0 10.8 10.8" enable-background="new 0 0 10.8 10.8" xml:space="preserve">
<g>
	<g>
		<path fill="#91979C" d="M3.49,10.106h-1.1c-0.474,0-0.845-0.371-0.845-0.847V7.22C0.647,6.94,0,6.102,0,5.131V4.779
			c0-1.21,0.983-2.195,2.194-2.195h2.317v4.741H4.337V9.26C4.337,9.735,3.965,10.106,3.49,10.106z M2.615,9.037h0.651v-2.78h0.176
			V3.654H2.194c-0.621,0-1.125,0.505-1.125,1.125v0.352c0,0.583,0.461,1.075,1.049,1.117l0.497,0.036V9.037z"/>
	</g>
	<g>
		<path fill="#91979C" d="M9.957,9.206c-0.107,0-0.213-0.021-0.313-0.059L4.181,6.823V3.077l5.45-2.318
			c0.258-0.112,0.59-0.078,0.82,0.094c0.223,0.168,0.35,0.419,0.35,0.69v6.813c0,0.068,0,0.211-0.076,0.365
			C10.613,9,10.304,9.206,9.957,9.206z M5.251,6.116L9.73,8.02V1.86L5.251,3.784V6.116z"/>
	</g>
</g>
</svg>
