<?xml version="1.0" encoding="utf-8"?>
<!-- Generator: Adobe Illustrator 21.0.1, SVG Export Plug-In . SVG Version: 6.00 Build 0)  -->
<svg version="1.1" id="Layer_1" xmlns="http://www.w3.org/2000/svg" xmlns:xlink="http://www.w3.org/1999/xlink" x="0px" y="0px"
	 width="16px" height="16px" viewBox="0 0 16 16" style="enable-background:new 0 0 16 16;" xml:space="preserve">
<style type="text/css">
	.st0{fill:#2D2D2D;}
	.st1{fill:#F47C00;}
</style>
<g id="_x23_ffffffff">
</g>
<path class="st0" d="M6.9,2.4c0.6-0.1,1.2,0,1.6,0.2C8.8,2.7,9,2.9,9.2,3.1c0.2,0.2,0.4,0.4,0.6,0.6c0,0,0,0.1,0.1,0.1
	c-0.5,0-1,0-1.4,0c-0.1,0-0.2,0-0.3,0c0,0-0.1,0.1-0.2,0.1C7.8,3.8,7.6,3.7,7.4,3.7C7,3.7,6.8,3.9,6.5,4.1C6.3,4.2,6.2,4.4,6.1,4.7
	C6,5,6,5.4,6.2,5.7c-0.3,0.3-0.7,0.7-1,1C5,6.5,4.8,6.1,4.7,5.7C4.6,5.2,4.6,4.6,4.8,4.1c0.2-0.4,0.4-0.7,0.7-1
	C5.9,2.7,6.4,2.5,6.9,2.4z"/>
<path class="st1" d="M1.2,4C1.6,3.8,2,3.7,2.4,3.9C2.9,4,3.3,4.3,3.6,4.7C3.8,5,4,5.4,4,5.9c0,0.2-0.1,0.5-0.2,0.7
	C6,8.8,8.2,11,10.4,13.2c-0.6,0-1.3,0-1.9,0c0,0,0,0-0.1,0C7.2,12,6.1,10.9,4.9,9.7c-0.4,0.4-0.8,0.8-1.2,1.2
	C3.9,11.2,4,11.5,4,11.7c0,0.6-0.2,1.1-0.6,1.4c-0.4,0.4-0.9,0.6-1.4,0.5c-0.6,0-1.1-0.3-1.4-0.8c-0.3-0.4-0.5-1-0.4-1.5
	c0-0.6,0.3-1,0.8-1.4c0.4-0.3,1-0.4,1.5-0.3c0.2,0,0.3,0.1,0.4,0.2C3.2,9.5,3.6,9.1,4,8.7C3.6,8.3,3.2,7.9,2.8,7.5
	C2.5,7.7,2.2,7.7,2,7.7c-0.5,0-0.9-0.2-1.3-0.5C0.3,6.9,0.1,6.5,0,6c0-0.4,0-0.8,0.2-1.2C0.4,4.5,0.8,4.1,1.2,4 M1.9,4.8
	C1.6,4.8,1.3,5,1.2,5.2C1.1,5.4,1,5.7,1.1,5.9c0,0.2,0.2,0.4,0.4,0.6C1.6,6.7,1.8,6.7,2,6.7c0.2,0,0.4-0.1,0.6-0.2
	C2.7,6.4,2.9,6.2,2.9,6c0.1-0.2,0-0.4,0-0.6C2.8,5.2,2.6,5,2.4,4.9C2.2,4.8,2.1,4.7,1.9,4.8 M4.8,8.5c-0.2,0-0.2,0.2-0.1,0.4
	C4.8,9,5,9,5.2,8.9c0-0.1,0-0.2,0-0.3C5,8.5,4.9,8.5,4.8,8.5 M1.8,10.7c-0.2,0.1-0.5,0.2-0.6,0.5C1,11.4,1,11.7,1,11.9
	c0,0.2,0.2,0.4,0.4,0.6c0.2,0.1,0.4,0.2,0.6,0.2c0.2,0,0.4-0.1,0.6-0.2c0.2-0.2,0.3-0.4,0.3-0.6c0-0.2,0-0.4-0.1-0.6
	c-0.1-0.2-0.3-0.4-0.5-0.5C2.2,10.7,2,10.7,1.8,10.7z"/>
<path class="st1" d="M8.4,4.3c0.6,0,1.3,0,2,0C9,5.6,7.7,6.9,6.4,8.2c-0.3-0.3-0.6-0.6-1-1C6.4,6.3,7.4,5.3,8.4,4.3z"/>
<path class="st0" d="M10.6,5.9c0.6,0,1.1,0.1,1.6,0.4c0.4,0.2,0.8,0.5,1.1,0.8c0.7,0.7,1.4,1.4,2.1,2c0.4,0.4,0.6,0.8,0.7,1.3
	c0.1,0.6,0,1.2-0.2,1.7c-0.2,0.5-0.6,0.9-1.1,1.2c-0.5,0.3-1.1,0.4-1.7,0.3c-0.6-0.1-1.1-0.3-1.5-0.7c-0.2-0.2-0.3-0.3-0.5-0.5
	c-0.1-0.1-0.2-0.1-0.2-0.2c-0.1-0.2-0.2-0.4-0.1-0.6c0-0.2,0.2-0.4,0.4-0.4c0.2-0.1,0.4-0.1,0.6,0c0.1,0.1,0.2,0.2,0.3,0.3
	c0.2,0.2,0.3,0.3,0.4,0.4c0.3,0.3,0.7,0.4,1.1,0.3c0.4-0.1,0.6-0.3,0.8-0.6c0.2-0.3,0.2-0.6,0.1-1c0-0.2-0.2-0.4-0.3-0.6
	c-0.5-0.5-1-1-1.5-1.4C12.5,8.5,12.3,8.2,12,8c-0.2-0.2-0.4-0.4-0.7-0.5c-0.2-0.1-0.4-0.2-0.6-0.1c-0.2,0-0.3,0.1-0.4,0.2
	c-0.1,0-0.1,0.1-0.2,0.2C10,7.8,9.7,7.9,9.5,7.8C9.3,7.7,9.2,7.5,9.1,7.3s0-0.4,0-0.6c0-0.1,0.1-0.2,0.2-0.2
	C9.7,6.1,10.1,5.9,10.6,5.9z"/>
<path class="st0" d="M6.9,8.4c0.3-0.3,0.7-0.7,1-1c0.2,0.2,0.5,0.5,0.7,0.7C8.8,8.3,9,8.5,9.2,8.6c0.2,0.1,0.4,0.2,0.6,0.2
	c0.2,0,0.3,0,0.4-0.2c0.1,0,0.1-0.1,0.2-0.2c0.2-0.1,0.4-0.2,0.6-0.2c0.2,0,0.4,0.2,0.5,0.3c0.1,0.2,0.1,0.4,0,0.7
	c-0.1,0.1-0.2,0.2-0.3,0.3c-0.2,0.2-0.5,0.4-0.8,0.4s-0.6,0.1-0.9,0.1C9.1,10,8.7,9.8,8.3,9.5C8.1,9.4,7.9,9.2,7.8,9.1
	C7.4,8.9,7.2,8.6,6.9,8.4z"/>
</svg>
