<?xml version="1.0" encoding="utf-8"?>
<!-- Generator: Adobe Illustrator 21.0.1, SVG Export Plug-In . SVG Version: 6.00 Build 0)  -->
<svg version="1.1" id="Ebene_1" xmlns="http://www.w3.org/2000/svg" xmlns:xlink="http://www.w3.org/1999/xlink" x="0px" y="0px"
	 width="50px" height="50px" viewBox="0 0 50 50" style="enable-background:new 0 0 50 50;" xml:space="preserve">
<path d="M22.2,11c1.4-0.3,2.9-0.1,4.1,0.6c0.6,0.3,1.1,0.7,1.6,1.2c0.5,0.5,1.1,1.1,1.6,1.6c0.1,0.1,0.1,0.2,0.2,0.2
	c-1.2,0-2.4,0-3.6,0c-0.2,0-0.4,0.1-0.7,0.1c-0.1,0-0.2,0.2-0.4,0.2c-0.4-0.4-1-0.6-1.6-0.6c-0.8,0-1.5,0.4-2.1,0.9
	c-0.5,0.4-0.8,0.9-1,1.5c-0.3,0.9-0.2,1.9,0.3,2.7c-0.8,0.8-1.7,1.7-2.5,2.5c-0.6-0.7-1-1.6-1.3-2.5c-0.4-1.4-0.3-2.8,0.2-4.1
	c0.4-1,1-1.8,1.7-2.5C19.8,11.9,21,11.3,22.2,11z"/>
<path d="M7.9,15c1-0.4,2.1-0.6,3.2-0.3c1.2,0.3,2.2,1,2.9,2c0.6,0.9,0.9,1.9,0.9,3c0,0.6-0.2,1.2-0.5,1.8c5.5,5.5,11,11,16.5,16.5
	c-1.6,0-3.2,0-4.8,0c-0.1,0-0.1,0-0.2,0c-2.9-2.9-5.7-5.7-8.6-8.6c-1,1-2,2-2.9,3c0.4,0.6,0.5,1.3,0.5,2c0,1.4-0.6,2.7-1.6,3.6
	c-1,0.9-2.3,1.4-3.6,1.2c-1.4-0.1-2.7-0.8-3.5-1.9c-0.8-1-1.2-2.4-1-3.7C5.2,32.2,6,31,7.1,30.2c1.1-0.8,2.5-1.1,3.8-0.8
	c0.4,0.1,0.7,0.2,1,0.4c1-1,2-2,3-3c-1-1-2-2-3-3c-0.6,0.4-1.3,0.5-2,0.5c-1.2,0-2.3-0.4-3.2-1.2c-0.9-0.8-1.5-1.9-1.7-3
	c-0.1-1,0-2,0.5-2.9C6,16.3,6.9,15.4,7.9,15 M9.6,17c-0.7,0.1-1.3,0.5-1.7,1.1c-0.3,0.5-0.5,1.1-0.3,1.7c0.1,0.6,0.4,1.1,0.9,1.5
	c0.4,0.4,1,0.6,1.5,0.6c0.5,0,1-0.2,1.4-0.5c0.4-0.3,0.8-0.8,0.9-1.3c0.2-0.5,0.1-1.1-0.1-1.6c-0.2-0.5-0.6-1-1.2-1.3
	C10.6,17,10.1,16.9,9.6,17 M17.1,26.3c-0.4,0.1-0.5,0.6-0.3,0.9c0.2,0.4,0.8,0.4,1.1,0c0.1-0.2,0.1-0.6-0.1-0.8
	C17.6,26.2,17.3,26.2,17.1,26.3 M9.4,31.8C8.8,32,8.2,32.4,7.8,33c-0.3,0.5-0.4,1.2-0.3,1.8c0.1,0.6,0.5,1.1,1,1.5
	c0.5,0.3,1,0.5,1.6,0.4c0.5,0,1.1-0.3,1.5-0.6c0.4-0.4,0.7-0.9,0.8-1.5c0.1-0.5,0-1-0.2-1.4c-0.3-0.5-0.7-1-1.2-1.2
	C10.4,31.8,9.9,31.7,9.4,31.8z"/>
<path d="M25.9,15.8c1.6,0,3.3,0,4.9,0c-3.3,3.3-6.6,6.6-9.8,9.8c-0.8-0.8-1.6-1.6-2.5-2.5C21,20.7,23.5,18.2,25.9,15.8z"/>
<path d="M31.4,19.8c1.4-0.1,2.7,0.3,3.9,0.9c1,0.5,1.9,1.3,2.7,2.1c1.7,1.7,3.4,3.4,5.2,5.1c0.9,0.9,1.5,2.1,1.7,3.3
	c0.3,1.4,0.1,2.9-0.5,4.2c-0.6,1.2-1.6,2.3-2.8,2.9c-1.3,0.7-2.8,1-4.2,0.8c-1.4-0.2-2.7-0.8-3.7-1.8c-0.4-0.4-0.8-0.8-1.2-1.2
	c-0.2-0.2-0.4-0.3-0.5-0.5c-0.3-0.4-0.4-1-0.2-1.5c0.1-0.5,0.5-0.9,1-1.1c0.5-0.2,1.1-0.2,1.5,0.1c0.3,0.2,0.5,0.4,0.8,0.7
	c0.4,0.4,0.8,0.8,1.1,1.1c0.7,0.7,1.8,1,2.8,0.8c0.9-0.2,1.6-0.7,2.1-1.5c0.4-0.7,0.5-1.6,0.3-2.4c-0.1-0.5-0.4-1-0.8-1.4
	c-1.2-1.2-2.4-2.4-3.7-3.6c-0.6-0.6-1.2-1.2-1.8-1.8c-0.5-0.5-1.1-0.9-1.7-1.2c-0.4-0.2-0.9-0.4-1.4-0.3c-0.4,0-0.8,0.2-1.1,0.4
	c-0.2,0.1-0.3,0.3-0.5,0.4c-0.5,0.3-1.1,0.4-1.6,0.2c-0.5-0.2-0.9-0.6-1.1-1.1c-0.2-0.5-0.1-1,0.1-1.5c0.1-0.2,0.3-0.4,0.6-0.6
	C29.3,20.4,30.3,19.9,31.4,19.8z"/>
<path d="M22.3,26c0.8-0.8,1.7-1.7,2.5-2.5c0.6,0.6,1.2,1.2,1.8,1.8c0.5,0.5,0.9,0.9,1.5,1.2c0.4,0.3,0.9,0.5,1.5,0.5
	c0.4,0,0.8-0.1,1.1-0.4c0.2-0.1,0.3-0.3,0.5-0.4c0.4-0.3,0.9-0.5,1.4-0.5c0.5,0.1,1,0.4,1.3,0.8c0.3,0.5,0.3,1.1,0.1,1.7
	c-0.2,0.3-0.5,0.6-0.7,0.8c-0.6,0.5-1.3,0.9-2,1.1c-0.7,0.2-1.5,0.3-2.3,0.2c-1.2-0.2-2.3-0.7-3.2-1.4c-0.5-0.4-1-0.8-1.4-1.2
	C23.6,27.3,22.9,26.6,22.3,26z"/>
</svg>
