<?xml version="1.0" encoding="utf-8"?>
<!-- Generator: Adobe Illustrator 22.1.0, SVG Export Plug-In . SVG Version: 6.00 Build 0)  -->
<svg version="1.1" id="Layer_1" xmlns="http://www.w3.org/2000/svg" xmlns:xlink="http://www.w3.org/1999/xlink" x="0px" y="0px"
	 width="20.3339996px" height="32px" viewBox="0 0 20.3339996 32" style="enable-background:new 0 0 20.3339996 32;"
	 xml:space="preserve">
<style type="text/css">
	.st0{fill:#4C74AD;}
	.st1{fill:#E97524;}
	.st2{fill:#6B8EC5;}
	.st3{fill:#FAAB3B;}
	.st4{fill:#F7E508;}
	.st5{fill:#F5EB3F;}
	.st6{fill:#CCD6DB;}
	.st7{fill:#F1F1F1;}
	.st8{fill:#2C2F30;}
	.st9{fill:#5E5E5E;}
	.st10{fill:#818699;}
	.st11{fill:#191A22;}
	.st12{fill:#B4B7BF;}
	.st13{fill:#BABFBB;}
	.st14{fill:#D8DEDA;}
	.st15{fill:#312F30;}
	.st16{fill:#181A28;}
	.st17{fill:#2E3140;}
	.st18{fill:#919894;}
	.st19{fill:#A8ACA8;}
	.st20{fill:#B8BABF;}
	.st21{fill:#CCCDD1;}
	.st22{fill:none;stroke:#000000;stroke-width:4;stroke-linecap:round;stroke-miterlimit:10;}
</style>
<g id="XMLID_12_">
	<polygon id="XMLID_366_" class="st0" points="7.4440122,30.0116291 4.5153317,30.0116291 4.5153317,29.2280369 
		7.4440122,29.232935 	"/>
	<path id="XMLID_365_" class="st1" d="M7.9631433,28.6109581c0,0.4505672-0.3624115,0.8129768-0.8129787,0.8129768H4.0892529
		c-0.4505663,0-0.8129783-0.3624134-0.8129783-0.8129768l0,0c0-0.4505672,0.362412-0.8129768,0.8129783-0.8129768H7.145267
		C7.6007309,27.7979774,7.9631433,28.165287,7.9631433,28.6109581L7.9631433,28.6109581z"/>
	<rect id="XMLID_362_" x="12.9095774" y="29.2280369" class="st2" width="2.9286799" height="0.7786972"/>
	<path id="XMLID_361_" class="st3" d="M16.3573875,28.6109581c0,0.4505672-0.3624115,0.8129768-0.8129778,0.8129768h-3.0560141
		c-0.4505663,0-0.8129787-0.3624134-0.8129787-0.8129768l0,0c0-0.4505672,0.3624115-0.8129768,0.8129787-0.8129768h3.0560141
		C15.994976,27.7979774,16.3573875,28.165287,16.3573875,28.6109581L16.3573875,28.6109581z"/>
	<path id="XMLID_360_" class="st1" d="M10.1572046,0C7.630115,0.3036425,7.1844468,4.7211509,7.1844468,5.6222835v18.855217
		h2.9727578V0z"/>
	<path id="XMLID_359_" class="st3" d="M10.1572046,0c2.5417805,0.3036425,2.9825525,4.7211509,2.9825525,5.6271806V24.482399
		h-2.9825525V0z"/>
	<rect id="XMLID_358_" x="7.1844468" y="13.0909081" class="st4" width="2.9825532" height="0.3477199"/>
	<polygon id="XMLID_357_" class="st5" points="13.1397572,13.4386282 13.1397572,13.0909081 10.1572046,13.0909081 
		10.1572046,13.4386282 	"/>
	<polygon id="XMLID_356_" class="st4" points="10.1669998,7.2384448 10.1669998,6.8907251 7.1844468,6.8907251 7.1844468,7.2384448 
			"/>
	<rect id="XMLID_355_" x="10.1572046" y="6.8907251" class="st5" width="2.9825523" height="0.3477199"/>
	<path id="XMLID_352_" class="st6" d="M4.2067919,24.6048355h1.3761859V4.2460971
		C5.4409513,4.2803793,5.1911812,4.4468927,4.9071283,5.1227422c-0.435874,1.0333638-0.8129783,1.6553411-0.8766451,2.620141
		c-0.2791553,4.3685336,0,16.8178749,0,16.8178749L4.2067919,24.6048355z"/>
	<path id="XMLID_349_" class="st7" d="M6.9591641,24.6048355l0.171411-0.0440769c0,0,0.2791553-12.4493418,0-16.8178749
		C7.071806,6.7780843,6.6947017,6.1561065,6.2588272,5.1227427c-0.2840528-0.6758494-0.533823-0.8423634-0.6758494-0.8766456
		v20.3587399L6.9591641,24.6048355z"/>
	<path id="XMLID_348_" class="st8" d="M5.5829778,18.1989594v-0.4064884H3.922739c0,0.1371269,0,0.2693596,0,0.4064884H5.5829778z"
		/>
	<path id="XMLID_347_" class="st9" d="M7.243216,18.1989594c0-0.1371288,0-0.2742577,0-0.4064884H5.5829778v0.4064884H7.243216z"/>
	<path id="XMLID_346_" class="st8" d="M5.5829778,13.4925003v-0.4064884H3.908047c0,0.1371279,0,0.2693605,0,0.4064884H5.5829778z"
		/>
	<path id="XMLID_345_" class="st9" d="M7.2579088,13.4925003c0-0.1371279,0-0.2742577,0-0.4064884h-1.674931v0.4064884H7.2579088z"
		/>
	<path id="XMLID_344_" class="st8" d="M5.5829778,8.629323V8.2375259L3.9913037,8.2326288
		c-0.009795,0.1371288-0.0146925,0.2693596-0.0146925,0.4015913L5.5829778,8.629323z"/>
	<path id="XMLID_343_" class="st9" d="M7.1893444,8.629323c0-0.1322308-0.0048976-0.2644625-0.0048976-0.3966942h-1.601469
		v0.3917961L7.1893444,8.629323z"/>
	<path id="XMLID_324_" class="st6" d="M13.330759,24.6048355h1.3761864V4.2460971
		c-0.1420259,0.0342822-0.3917971,0.2007957-0.675849,0.8766451c-0.435873,1.0333638-0.8129787,1.6553411-0.8766451,2.620141
		c-0.2791557,4.3685336,0,16.8178749,0,16.8178749L13.330759,24.6048355z"/>
	<path id="XMLID_321_" class="st7" d="M16.0831299,24.6048355l0.1714115-0.0440769c0,0,0.2791557-12.4493418,0-16.8178749
		c-0.0587711-0.9647989-0.435874-1.5867767-0.8766451-2.6201406c-0.2840519-0.6709518-0.533823-0.8374653-0.675849-0.8766451
		v20.3587399L16.0831299,24.6048355z"/>
	<path id="XMLID_320_" class="st8" d="M14.7069435,18.1989594v-0.4064884h-1.6602383c0,0.1371269,0,0.2693596,0,0.4064884
		H14.7069435z"/>
	<path id="XMLID_319_" class="st9" d="M16.3671837,18.1989594c0-0.1371288,0-0.2742577,0-0.4064884h-1.6602383v0.4064884H16.3671837
		z"/>
	<path id="XMLID_318_" class="st8" d="M14.7069435,13.4925003v-0.4064884H13.032012c0,0.1371279,0,0.2693605,0,0.4064884H14.7069435
		z"/>
	<path id="XMLID_317_" class="st9" d="M16.381876,13.4925003c0-0.1371279,0-0.2742577,0-0.4064884h-1.6749325v0.4064884H16.381876z"
		/>
	<path id="XMLID_316_" class="st8" d="M14.7069435,8.629323V8.2375259l-1.5867758-0.0048971
		c-0.0097961,0.1322308-0.0146923,0.2693596-0.0146923,0.4015913L14.7069435,8.629323z"/>
	<path id="XMLID_315_" class="st9" d="M16.3133106,8.629323c0-0.1322308-0.0048962-0.2644625-0.0048962-0.3966942h-1.6014709
		v0.3917961L16.3133106,8.629323z"/>
	<path id="XMLID_314_" class="st10" d="M7.0864978,17.3957767c-0.7493114,3.7563515-3.9424548,5.7545147-5.5831037,6.7731838
		c-1.6406488,1.018671-1.2684418,2.7033997-1.2684418,2.7033997h-0.2350781v0.8227711l8.1199875,0.1077461V12.8607283v-0.1958981
		C7.8847837,13.6394243,7.0864978,17.3957767,7.0864978,17.3957767z"/>
	<path id="XMLID_311_" class="st11" d="M6.0433393,19.8347092c-0.9599023,1.4202633-2.5662689,2.9384766-4.2118149,3.9816341
		c-2.037343,1.2880325-1.7434956,2.6397324-1.6259565,2.9727592h0.4015917
		c-0.1126415-1.7630863,1.5965719-2.7376804,1.5965719-2.7376804c2.4438319-1.650444,3.7073765-3.1343727,4.3636365-4.216713
		H6.0433393z"/>
	<polygon id="XMLID_310_" class="st11" points="6.5232897,25.9663296 4.8532562,25.9663296 4.8532562,25.5745335 
		6.5232897,25.5745335 	"/>
	<rect id="XMLID_268_" x="4.3928952" y="26.0838661" class="st11" width="2.1303947" height="0.3917967"/>
	<path id="XMLID_267_" class="st12" d="M13.2083225,17.3957767c0.7542086,3.7563515,3.9669418,5.7545147,5.6173859,6.7731838
		c1.650444,1.018671,1.2733402,2.6984997,1.2733402,2.6984997h0.2350769v0.822773l-8.1689615,0.1077442V12.8558302v-0.1958981
		C12.405139,13.6394243,13.2083225,17.3957767,13.2083225,17.3957767z"/>
	<path id="XMLID_266_" class="st11" d="M18.4926815,23.8163433c-1.6602383-1.0431576-3.2715044-2.5613708-4.2363033-3.9816341
		h-0.5289249c0.6611576,1.0823402,1.9344969,2.5613708,4.3881245,4.216713c0,0,1.7190075,0.9745941,1.6112633,2.7376804h0.4015923
		C20.2459698,26.4560757,20.5447159,25.1043758,18.4926815,23.8163433z"/>
	<rect id="XMLID_265_" x="13.7666321" y="25.5745335" class="st11" width="1.6700339" height="0.3917967"/>
	<rect id="XMLID_264_" x="13.7666321" y="26.0838661" class="st11" width="2.1303947" height="0.3917967"/>
	<path id="XMLID_256_" class="st13" d="M9.0748663,6.8515453c-0.0195894,0.0538721-0.0391798,0.1126418-0.0538721,0.171411
		c-1.1362104,3.5506577-0.9941845,7.3070083-0.9941845,7.3070083V29.570858h2.1303949V6.8515453H9.0748663z"/>
	<path id="XMLID_253_" class="st14" d="M11.293416,7.027854c-0.0195904-0.0636668-0.0391798-0.1224365-0.0587702-0.1812057
		h-1.0774403V29.570858h2.130394V14.3299665C12.2875996,14.3348637,12.4296265,10.5785122,11.293416,7.027854z"/>
	<rect id="XMLID_252_" x="7.7770395" y="30.4817867" class="st15" width="2.365473" height="0.7835935"/>
	<rect id="XMLID_251_" x="10.1425123" y="30.491581" class="st15" width="2.365473" height="0.7835935"/>
	<path id="XMLID_103_" class="st0" d="M10.1523075,10.2552795V8.3942451
		c-0.8374662,0.0146923-1.1117229,0.337924-1.2292624,0.6660547c-0.1028471,0.2840528-0.195899,1.1998777-0.195899,1.1998777
		L10.1523075,10.2552795z"/>
	<path id="XMLID_66_" class="st2" d="M11.5774679,10.2552795c0,0-0.0930519-0.8619537-0.1910009-1.1313133
		c-0.1224365-0.337925-0.4211817-0.7199268-1.2292624-0.724824v1.8561373H11.5774679z"/>
	<path id="XMLID_61_" class="st16" d="M10.1523075,7.0229564V5.2990508c-0.3183346,0-0.6072845,0.0685644-1.1362104,1.7239056
		H10.1523075z"/>
	<path id="XMLID_59_" class="st17" d="M10.1572046,7.0229564V5.2990508
		c0.2840528-0.0097947,0.6072845,0.0685644,1.1362104,1.7239056H10.1572046z"/>
	<path id="XMLID_58_" class="st18" d="M10.1523075,12.0330572v-0.2595654h-2.037343
		c-0.0097942,0.0881548-0.0146923,0.1763086-0.0195894,0.2595654H10.1523075z"/>
	<path id="XMLID_52_" class="st19" d="M12.2141371,12.0330572c-0.0048971-0.0832567-0.0146923-0.1714106-0.0195894-0.2595654
		h-2.037343v0.2595654H12.2141371z"/>
	<polygon id="XMLID_49_" class="st18" points="10.1523075,15.6326904 10.1523075,15.319252 8.0219126,15.319252 
		8.0219126,15.6326904 	"/>
	
		<rect id="XMLID_48_" x="10.1572142" y="15.3192682" transform="matrix(0.999999 -0.0013605 0.0013605 0.999999 -0.021045 0.0152826)" class="st19" width="2.1303968" height="0.3134374"/>
	<rect id="XMLID_47_" x="8.0219126" y="18.8895016" class="st18" width="2.1303947" height="0.3134371"/>
	<rect id="XMLID_40_" x="10.1572046" y="18.8895016" class="st19" width="2.1303947" height="0.3134371"/>
	<rect id="XMLID_41_" x="8.0219126" y="26.0202007" class="st18" width="2.1303947" height="0.3134386"/>
	<rect id="XMLID_33_" x="10.1572046" y="26.0202007" class="st19" width="2.1303947" height="0.3134386"/>
	<path id="XMLID_39_" class="st10" d="M15.363205,24.433424c0,0.4211826-0.3428221,0.7640038-0.7640047,0.7640038
		c-0.4211817,0-0.7640038-0.3428211-0.7640038-0.7640038s0.3428221-0.7640038,0.7640038-0.7640038
		C15.0203829,23.6645241,15.363205,24.0073452,15.363205,24.433424z"/>
	<path id="XMLID_38_" class="st20" d="M7.3019862,30.7707367h2.8405261v-4.069788c0,0-2.8405261-0.3134384-2.8405261,1.3027229
		V30.7707367z"/>
	<path id="XMLID_37_" class="st21" d="M12.9830389,30.7756348h-2.8405266v-4.069788c0,0,2.8405266-0.3134384,2.8405266,1.3027248
		V30.7756348z"/>
	<line id="XMLID_29_" class="st22" x1="10.0690508" y1="18.7082939" x2="10.0690508" y2="27.7979774"/>
	<polygon id="XMLID_27_" class="st0" points="9.7213306,32 7.9043732,32 7.9043732,31.5151501 9.7262287,31.5151501 	"/>
	<path id="XMLID_23_" class="st1" d="M9.9955893,31.1282501c0,0.2252808-0.1861038,0.4113884-0.4113865,0.4113884H8.041503
		c-0.2252836,0-0.411386-0.1812077-0.411386-0.4113884l0,0c0-0.2252827,0.1861033-0.4113884,0.411386-0.4113884h1.5426998
		C9.8143826,30.7168655,9.9955893,30.9029675,9.9955893,31.1282501L9.9955893,31.1282501z"/>
	<rect id="XMLID_11_" x="10.5441046" y="31.5102539" class="st2" width="1.8169569" height="0.4848497"/>
	<path id="XMLID_9_" class="st3" d="M12.6353188,31.1282501c0,0.2252808-0.1861029,0.4113884-0.4113855,0.4113884h-1.5426998
		c-0.2252836,0-0.4113865-0.1812077-0.4113865-0.4113884l0,0c0-0.2252827,0.1861038-0.4113884,0.4113865-0.4113884h1.5426998
		C12.454113,30.7168655,12.6353188,30.8980713,12.6353188,31.1282501L12.6353188,31.1282501z"/>
</g>
</svg>
