<?xml version="1.0" encoding="utf-8"?>
<!-- Generator: Adobe Illustrator 21.0.1, SVG Export Plug-In . SVG Version: 6.00 Build 0)  -->
<svg version="1.1" id="Layer_1" xmlns="http://www.w3.org/2000/svg" xmlns:xlink="http://www.w3.org/1999/xlink" x="0px" y="0px"
	 width="16px" height="16px" viewBox="0 0 16 16" style="enable-background:new 0 0 16 16;" xml:space="preserve">
<style type="text/css">
	.st0{fill:url(#SVGID_1_);}
	.st1{fill:#D64140;}
</style>
<linearGradient id="SVGID_1_" gradientUnits="userSpaceOnUse" x1="-317.0282" y1="21.0476" x2="-309.9482" y2="28.1276" gradientTransform="matrix(15.9336 0 0 12.5457 5107.3159 -220.2055)">
	<stop  offset="0" style="stop-color:#74B739"/>
	<stop  offset="1" style="stop-color:#56991C"/>
</linearGradient>
<path class="st0" d="M15.7,2.4L15.2,2c-0.3-0.3-0.9-0.3-1.2,0.1l0,0l-7.7,9.2L1.9,6C1.7,5.7,1.3,5.7,1,6l0,0L0.3,6.6
	C0,6.9-0.1,7.3,0.2,7.5l0,0L5.6,14c0.3,0.4,0.9,0.4,1.3,0.1C6.9,14.1,7,14,7,14l8.7-10.4C16,3.3,16,2.7,15.7,2.4L15.7,2.4z"/>
<path class="st1" d="M10.8,0c1.4-0.1,2.8,0.4,3.9,1.3C15.6,2,16.1,3.1,16,4.2c-0.1,1.3-0.7,2.5-1.5,3.5c-0.8,1-1.6,1.8-2.6,2.6
	c0.8-1.1,1.5-2.2,1.9-3.5c0.3-1,0.6-2.2,0-3.1c-0.6-0.8-1.8-1-2.6-0.5c-0.4,0.3-0.8,0.7-1.2,1c0.3,0.3,0.5,0.5,0.8,0.8
	C9.2,5.4,7.6,5.6,6,5.8C6.2,4.2,6.3,2.6,6.5,1C6.8,1.2,7,1.5,7.3,1.8C8.1,0.6,9.5,0.1,10.8,0z"/>
</svg>
