<?xml version="1.0" encoding="utf-8"?>
<!-- Generator: Adobe Illustrator 16.0.0, SVG Export Plug-In . SVG Version: 6.00 Build 0)  -->
<!DOCTYPE svg PUBLIC "-//W3C//DTD SVG 1.1//EN" "http://www.w3.org/Graphics/SVG/1.1/DTD/svg11.dtd">
<svg version="1.1" id="Ebene_1" xmlns="http://www.w3.org/2000/svg" xmlns:xlink="http://www.w3.org/1999/xlink" x="0px" y="0px"
	 width="50px" height="50px" viewBox="871 871 50 50" enable-background="new 871 871 50 50" xml:space="preserve">
<path d="M888.503,905.596l-1.093,1.093c-0.146,0.146-0.313,0.219-0.502,0.219s-0.357-0.073-0.503-0.219l-10.186-10.186
	C876.073,896.357,876,896.189,876,896s0.073-0.357,0.219-0.503l10.186-10.186c0.146-0.146,0.313-0.219,0.503-0.219
	s0.357,0.073,0.502,0.219l1.093,1.093c0.146,0.146,0.218,0.313,0.218,0.503s-0.073,0.357-0.218,0.502l-8.59,8.59l8.59,8.59
	c0.146,0.146,0.218,0.313,0.218,0.503S888.648,905.45,888.503,905.596z M901.421,882.273l-8.153,28.219
	c-0.059,0.189-0.171,0.331-0.338,0.426c-0.168,0.095-0.34,0.113-0.514,0.055l-1.356-0.371c-0.189-0.059-0.332-0.172-0.426-0.339
	c-0.095-0.168-0.113-0.347-0.055-0.536l8.153-28.218c0.059-0.189,0.171-0.332,0.338-0.426c0.168-0.095,0.34-0.113,0.514-0.055
	l1.355,0.372c0.189,0.058,0.332,0.171,0.427,0.339S901.479,882.084,901.421,882.273z M915.781,896.503l-10.186,10.186
	c-0.146,0.146-0.313,0.219-0.503,0.219s-0.356-0.073-0.503-0.219l-1.093-1.093c-0.146-0.146-0.219-0.313-0.219-0.503
	s0.073-0.356,0.219-0.503l8.591-8.59l-8.591-8.59c-0.146-0.146-0.219-0.313-0.219-0.502s0.073-0.357,0.219-0.503l1.093-1.093
	c0.146-0.146,0.313-0.219,0.503-0.219s0.357,0.073,0.503,0.219l10.186,10.186c0.146,0.146,0.219,0.313,0.219,0.503
	S915.927,896.357,915.781,896.503z"/>
</svg>
