<?xml version="1.0" encoding="utf-8"?>
<!-- Generator: Adobe Illustrator 16.0.0, SVG Export Plug-In . SVG Version: 6.00 Build 0)  -->
<!DOCTYPE svg PUBLIC "-//W3C//DTD SVG 1.1//EN" "http://www.w3.org/Graphics/SVG/1.1/DTD/svg11.dtd">
<svg version="1.1" id="Ebene_1" xmlns="http://www.w3.org/2000/svg" xmlns:xlink="http://www.w3.org/1999/xlink" x="0px" y="0px"
	 width="14px" height="14px" viewBox="0 0 14 14" enable-background="new 0 0 14 14" xml:space="preserve">
<g>
	<path fill="#3B5998" d="M14,13.125C14,13.607,13.607,14,13.125,14H0.875C0.392,14,0,13.607,0,13.125V0.875C0,0.392,0.392,0,0.875,0
		h12.25C13.607,0,14,0.392,14,0.875V13.125z"/>
	<path id="f" fill="#FFFFFF" d="M9.625,14V8.75h1.75l0.438-2.188H9.625V5.688c0-0.875,0.438-1.313,1.313-1.313h0.875V2.188
		c-0.438,0-0.98,0-1.75,0c-1.607,0-2.625,1.26-2.625,3.063v1.313h-1.75V8.75h1.75V14H9.625z"/>
</g>
</svg>
