<?xml version="1.0" encoding="utf-8"?>
<!-- Generator: Adobe Illustrator 21.0.1, SVG Export Plug-In . SVG Version: 6.00 Build 0)  -->
<svg version="1.1" id="Layer_1" xmlns="http://www.w3.org/2000/svg" xmlns:xlink="http://www.w3.org/1999/xlink" x="0px" y="0px"
	 width="16px" height="16px" viewBox="0 0 16 16" style="enable-background:new 0 0 16 16;" xml:space="preserve">
<style type="text/css">
	.st0{fill:#F47C00;}
	.st1{fill:#2D2D2D;}
</style>
<g id="_x23_ffffffff">
</g>
<g id="_x23_8ab858ff">
	<path class="st0" d="M12.3,2H14v6c-0.6,0-1.1,0-1.7,0C12.3,6,12.3,4,12.3,2z"/>
	<path class="st0" d="M8.8,4.6c0.6,0,1.1,0,1.7,0c0,2,0,4,0,6c-0.6,0-1.1,0-1.7,0C8.8,8.6,8.8,6.6,8.8,4.6z"/>
	<path class="st0" d="M2,6.3c0.6,0,1.1,0,1.7,0c0,1.4,0,2.9,0,4.3c-0.6,0-1.1,0-1.7,0V6.3z"/>
	<path class="st0" d="M5.4,7.2c0.6,0,1.1,0,1.7,0c0,0.8,0,1.7,0,2.6c-0.6,0-1.1,0-1.7,0C5.4,8.8,5.4,8,5.4,7.2z"/>
</g>
<g id="_x23_2d2d2dff">
	<path class="st1" d="M12.3,8.8c0.6,0,1.1,0,1.7,0V14h-1.7C12.3,12.3,12.3,10.5,12.3,8.8z"/>
	<path class="st1" d="M5.4,10.5c0.6,0,1.1,0,1.7,0c0,1.1,0,2.3,0,3.5H5.4C5.4,12.9,5.4,11.8,5.4,10.5z"/>
	<path class="st1" d="M2,11.5c0.6,0,1.1,0,1.7,0c0,0.8,0,1.7,0,2.5H2V11.5z"/>
	<path class="st1" d="M8.8,11.5c0.6,0,1.1,0,1.7,0c0,0.8,0,1.7,0,2.5H8.8C8.8,13.2,8.8,12.3,8.8,11.5z"/>
</g>
</svg>
