<?xml version="1.0" encoding="utf-8"?>
<!-- Generator: Adobe Illustrator 25.1.0, SVG Export Plug-In . SVG Version: 6.00 Build 0)  -->
<svg version="1.1" id="skeleton" xmlns="http://www.w3.org/2000/svg" xmlns:xlink="http://www.w3.org/1999/xlink" x="0px" y="0px"
	 width="600px" height="175px" viewBox="0 0 600 175" style="enable-background:new 0 0 600 175;" xml:space="preserve">
<style type="text/css">
	.st0{fill:#FFFFFF;stroke:#333333;stroke-width:0.25;stroke-miterlimit:10;}
	.st1{fill:#D1D5DA;}
	.st2{fill:#BDDDC5;}
	.st3{fill:#21262D;}
	.st4{fill:#484F58;}
	.st5{fill:#2D333A;}
	.st6{fill:#3FB950;}
</style>
<g id="light">
	<path id="base" class="st0" d="M297.5188293,131.416748c0,4.9946747-4.0865479,9.0812378-9.0812378,9.0812378H13.8210773
		c-4.9946795,0-9.0812349-4.0865631-9.0812349-9.0812378V49.5836258c0-4.9946823,4.0865555-9.0812378,9.0812349-9.0812378
		h274.6165161c4.9946899,0,9.0812378,4.0865555,9.0812378,9.0812378V131.416748z"/>
	<g id="text">
		<path class="st1" d="M88.1451569,55.2297897c0,2.0130272-1.6470184,3.6600494-3.6600494,3.6600494H16.7741947
			c-2.0130281,0-3.6600513-1.6470222-3.6600513-3.6600494l0,0c0-2.0130272,1.6470232-3.6600494,3.6600513-3.6600494h67.7109146
			C86.4981384,51.5697403,88.1451569,53.2167625,88.1451569,55.2297897L88.1451569,55.2297897z"/>
		<path class="st1" d="M116.6935501,68.5890579c0,2.013031-1.6470261,3.6600571-3.6600571,3.6600571H16.7741947
			c-2.0130281,0-3.6600513-1.6470261-3.6600513-3.6600571l0,0c0-2.0130234,1.6470232-3.6600494,3.6600513-3.6600494h96.2593002
			C115.046524,64.9290085,116.6935501,66.5760345,116.6935501,68.5890579L116.6935501,68.5890579z"/>
		<path class="st1" d="M174.5223236,68.5890808c0,2.0130234-1.6470032,3.6600494-3.6600342,3.6600494h-46.4826355
			c-2.013031,0-3.6600494-1.6470261-3.6600494-3.6600494l0,0c0-2.013031,1.6470184-3.6600494,3.6600494-3.6600494h46.4826355
			C172.8753204,64.9290314,174.5223236,66.5760498,174.5223236,68.5890808L174.5223236,68.5890808z"/>
		<path class="st1" d="M211.1863861,68.5890579c0,2.013031-1.6470032,3.6600571-3.6600342,3.6600571h-25.6203613
			c-2.0130157,0-3.6600342-1.6470261-3.6600342-3.6600571l0,0c0-2.0130234,1.6470184-3.6600494,3.6600342-3.6600494h25.6203613
			C209.5393829,64.9290085,211.1863861,66.5760345,211.1863861,68.5890579L211.1863861,68.5890579z"/>
		<path class="st1" d="M282.0198975,68.5890579c0,2.013031-1.6470032,3.6600571-3.6600342,3.6600571h-58.560791
			c-2.0130157,0-3.6600494-1.6470261-3.6600494-3.6600571l0,0c0-2.0130234,1.6470337-3.6600494,3.6600494-3.6600494h58.560791
			C280.3728943,64.9290085,282.0198975,66.5760345,282.0198975,68.5890579L282.0198975,68.5890579z"/>
		<path class="st1" d="M178.4944458,79.569458c0,2.0130234,1.6470184,3.6600494,3.6600494,3.6600494h96.2592926
			c2.013031,0,3.6600952-1.6470261,3.6600952-3.6600494l0,0c0-2.0130234-1.6470642-3.6600494-3.6600952-3.6600494h-96.2592926
			C180.1414642,75.9094086,178.4944458,77.5564346,178.4944458,79.569458L178.4944458,79.569458z"/>
		<path class="st1" d="M120.6656647,79.5694733c0,2.013031,1.6470261,3.6600494,3.6600494,3.6600494h46.4826355
			c2.0130157,0,3.6600494-1.6470184,3.6600494-3.6600494l0,0c0-2.0130234-1.6470337-3.6600494-3.6600494-3.6600494h-46.4826355
			C122.3126907,75.9094238,120.6656647,77.5564499,120.6656647,79.5694733L120.6656647,79.5694733z"/>
		<path class="st1" d="M84.0015945,79.569458c0,2.0130234,1.6470261,3.6600494,3.6600494,3.6600494h25.6203537
			c2.0130234,0,3.6600494-1.6470261,3.6600494-3.6600494l0,0c0-2.0130234-1.6470261-3.6600494-3.6600494-3.6600494H87.661644
			C85.6486206,75.9094086,84.0015945,77.5564346,84.0015945,79.569458L84.0015945,79.569458z"/>
		<path class="st1" d="M13.1680813,79.569458c0,2.0130234,1.6470222,3.6600494,3.6600494,3.6600494h58.560791
			c2.013031,0,3.6600494-1.6470261,3.6600494-3.6600494l0,0c0-2.0130234-1.6470184-3.6600494-3.6600494-3.6600494h-58.560791
			C14.8151035,75.9094086,13.1680813,77.5564346,13.1680813,79.569458L13.1680813,79.569458z"/>
		<path class="st1" d="M93.6891861,90.5498734c0,2.013031-1.6470184,3.6600494-3.6600494,3.6600494H16.8281422
			c-2.0130262,0-3.6600485-1.6470184-3.6600485-3.6600494l0,0c0-2.013031,1.6470222-3.6600494,3.6600485-3.6600494h73.2009964
			C92.0421677,86.8898239,93.6891861,88.5368423,93.6891861,90.5498734L93.6891861,90.5498734z"/>
		<path class="st1" d="M145.6079407,90.3662643c0,2.013031-1.6470184,3.6600494-3.6600494,3.6600494h-40.2605515
			c-2.0130234,0-3.6600494-1.6470184-3.6600494-3.6600494l0,0c0-2.0130234,1.6470261-3.6600494,3.6600494-3.6600494h40.2605515
			C143.9609222,86.7062149,145.6079407,88.353241,145.6079407,90.3662643L145.6079407,90.3662643z"/>
		<path class="st1" d="M212.2208405,90.5498734c0,2.013031-1.6470184,3.6600494-3.6600494,3.6600494h-54.534729
			c-2.013031,0-3.6600647-1.6470184-3.6600647-3.6600494l0,0c0-2.013031,1.6470337-3.6600494,3.6600647-3.6600494h54.534729
			C210.573822,86.8898239,212.2208405,88.5368423,212.2208405,90.5498734L212.2208405,90.5498734z"/>
		<path class="st1" d="M282.0738831,90.5498734c0,2.013031-1.6470642,3.6600494-3.6600952,3.6600494h-58.5607758
			c-2.013031,0-3.6600494-1.6470184-3.6600494-3.6600494l0,0c0-2.013031,1.6470184-3.6600494,3.6600494-3.6600494h58.5607758
			C280.4268188,86.8898239,282.0738831,88.5368423,282.0738831,90.5498734L282.0738831,90.5498734z"/>
	</g>
	<g id="buttons">
		<path id="reject_1_" class="st1" d="M230.6270447,121.7579422c0,4.0260468-3.2940521,7.3200912-7.3200989,7.3200912h-45.7506256
			c-4.026062,0-7.3200989-3.2940445-7.3200989-7.3200912l0,0c0-4.026062,3.2940369-7.3201065,7.3200989-7.3201065h45.7506256
			C227.3329926,114.4378357,230.6270447,117.7318802,230.6270447,121.7579422L230.6270447,121.7579422z"/>
		<path id="accept" class="st2" d="M288.0474548,121.7579422c0,4.0260468-3.2940674,7.3200912-7.3201294,7.3200912h-37.6079559
			c-4.026062,0-7.3200989-3.2940445-7.3200989-7.3200912l0,0c0-4.026062,3.2940369-7.3201065,7.3200989-7.3201065h37.6079559
			C284.7533875,114.4378357,288.0474548,117.7318802,288.0474548,121.7579422L288.0474548,121.7579422z"/>
	</g>
</g>
<g id="dark">
	<path id="base_1_" class="st3" d="M595.2601318,131.416748c0,4.9946747-4.0866089,9.0812378-9.0811768,9.0812378H311.5624084
		c-4.9946899,0-9.0812378-4.0865631-9.0812378-9.0812378V49.5836258c0-4.9946823,4.0865479-9.0812378,9.0812378-9.0812378
		h274.6165466c4.9945679,0,9.0811768,4.0865555,9.0811768,9.0812378V131.416748z"/>
	<g id="text_1_">
		<path class="st4" d="M388.1451721,55.2297897c0,2.0130272-1.6470337,3.6600494-3.6600647,3.6600494h-67.710907
			c-2.013031,0-3.6600647-1.6470222-3.6600647-3.6600494l0,0c0-2.0130272,1.6470337-3.6600494,3.6600647-3.6600494h67.710907
			C386.4981384,51.5697403,388.1451721,53.2167625,388.1451721,55.2297897L388.1451721,55.2297897z"/>
		<path class="st4" d="M416.6935425,68.5890579c0,2.013031-1.6470032,3.6600571-3.6600342,3.6600571h-96.2593079
			c-2.013031,0-3.6600647-1.6470261-3.6600647-3.6600571l0,0c0-2.0130234,1.6470337-3.6600494,3.6600647-3.6600494h96.2593079
			C415.0465393,64.9290085,416.6935425,66.5760345,416.6935425,68.5890579L416.6935425,68.5890579z"/>
		<path class="st4" d="M474.5223389,68.5890808c0,2.0130234-1.6470337,3.6600494-3.6600647,3.6600494h-46.4826355
			c-2.013031,0-3.6600342-1.6470261-3.6600342-3.6600494l0,0c0-2.013031,1.6470032-3.6600494,3.6600342-3.6600494h46.4826355
			C472.8753052,64.9290314,474.5223389,66.5760498,474.5223389,68.5890808L474.5223389,68.5890808z"/>
		<path class="st4" d="M511.1864014,68.5890579c0,2.013031-1.6470337,3.6600571-3.6600952,3.6600571h-25.6203003
			c-2.013031,0-3.6600647-1.6470261-3.6600647-3.6600571l0,0c0-2.0130234,1.6470337-3.6600494,3.6600647-3.6600494h25.6203003
			C509.5393677,64.9290085,511.1864014,66.5760345,511.1864014,68.5890579L511.1864014,68.5890579z"/>
		<path class="st4" d="M582.0199585,68.5890579c0,2.013031-1.6470337,3.6600571-3.6600952,3.6600571h-58.560791
			c-2.0130615,0-3.6600342-1.6470261-3.6600342-3.6600571l0,0c0-2.0130234,1.6469727-3.6600494,3.6600342-3.6600494h58.560791
			C580.3729248,64.9290085,582.0199585,66.5760345,582.0199585,68.5890579L582.0199585,68.5890579z"/>
		<path class="st4" d="M478.4944458,79.569458c0,2.0130234,1.6470337,3.6600494,3.6600647,3.6600494h96.2593079
			c2.0130005,0,3.6600342-1.6470261,3.6600342-3.6600494l0,0c0-2.0130234-1.6470337-3.6600494-3.6600342-3.6600494h-96.2593079
			C480.1414795,75.9094086,478.4944458,77.5564346,478.4944458,79.569458L478.4944458,79.569458z"/>
		<path class="st4" d="M420.6656494,79.5694733c0,2.013031,1.6470337,3.6600494,3.6600647,3.6600494h46.482605
			c2.0130615,0,3.6600647-1.6470184,3.6600647-3.6600494l0,0c0-2.0130234-1.6470032-3.6600494-3.6600647-3.6600494h-46.482605
			C422.3126831,75.9094238,420.6656494,77.5564499,420.6656494,79.5694733L420.6656494,79.5694733z"/>
		<path class="st4" d="M384.0016174,79.569458c0,2.0130234,1.6470032,3.6600494,3.6600342,3.6600494h25.6203613
			c2.0130005,0,3.6600342-1.6470261,3.6600342-3.6600494l0,0c0-2.0130234-1.6470337-3.6600494-3.6600342-3.6600494h-25.6203613
			C385.6486206,75.9094086,384.0016174,77.5564346,384.0016174,79.569458L384.0016174,79.569458z"/>
		<path class="st4" d="M313.1680908,79.569458c0,2.0130234,1.6470032,3.6600494,3.6600342,3.6600494h58.560791
			c2.013031,0,3.6600342-1.6470261,3.6600342-3.6600494l0,0c0-2.0130234-1.6470032-3.6600494-3.6600342-3.6600494h-58.560791
			C314.815094,75.9094086,313.1680908,77.5564346,313.1680908,79.569458L313.1680908,79.569458z"/>
		<path class="st4" d="M393.6891785,90.5498734c0,2.013031-1.6470337,3.6600494-3.6600342,3.6600494H316.828125
			c-2.013031,0-3.6600342-1.6470184-3.6600342-3.6600494l0,0c0-2.013031,1.6470032-3.6600494,3.6600342-3.6600494h73.2010193
			C392.0421448,86.8898239,393.6891785,88.5368423,393.6891785,90.5498734L393.6891785,90.5498734z"/>
		<path class="st4" d="M445.6079407,90.3662643c0,2.013031-1.6470032,3.6600494-3.6600647,3.6600494h-40.2605591
			c-2.0130005,0-3.6600342-1.6470184-3.6600342-3.6600494l0,0c0-2.0130234,1.6470337-3.6600494,3.6600342-3.6600494h40.2605591
			C443.9609375,86.7062149,445.6079407,88.353241,445.6079407,90.3662643L445.6079407,90.3662643z"/>
		<path class="st4" d="M512.2208862,90.5498734c0,2.013031-1.6470947,3.6600494-3.6600952,3.6600494h-54.534729
			c-2.013031,0-3.6600647-1.6470184-3.6600647-3.6600494l0,0c0-2.013031,1.6470337-3.6600494,3.6600647-3.6600494h54.534729
			C510.5737915,86.8898239,512.2208862,88.5368423,512.2208862,90.5498734L512.2208862,90.5498734z"/>
		<path class="st4" d="M582.0738525,90.5498734c0,2.013031-1.6470337,3.6600494-3.6600342,3.6600494h-58.560791
			c-2.0130615,0-3.6600342-1.6470184-3.6600342-3.6600494l0,0c0-2.013031,1.6469727-3.6600494,3.6600342-3.6600494h58.560791
			C580.4268188,86.8898239,582.0738525,88.5368423,582.0738525,90.5498734L582.0738525,90.5498734z"/>
	</g>
	<g id="buttons_1_">
		<path id="reject_2_" class="st5" d="M530.6270142,121.7579422c0,4.0260468-3.2940063,7.3200912-7.3200684,7.3200912h-45.7506104
			c-4.026062,0-7.3200989-3.2940445-7.3200989-7.3200912l0,0c0-4.026062,3.2940369-7.3201065,7.3200989-7.3201065h45.7506104
			C527.3330078,114.4378357,530.6270142,117.7318802,530.6270142,121.7579422L530.6270142,121.7579422z"/>
		<path id="accept_1_" class="st6" d="M588.0474243,121.7579422c0,4.0260468-3.2940063,7.3200912-7.3200684,7.3200912h-37.6080322
			c-4.026001,0-7.3200684-3.2940445-7.3200684-7.3200912l0,0c0-4.026062,3.2940674-7.3201065,7.3200684-7.3201065h37.6080322
			C584.753418,114.4378357,588.0474243,117.7318802,588.0474243,121.7579422L588.0474243,121.7579422z"/>
	</g>
</g>
</svg>
