<?xml version="1.0" encoding="utf-8"?>
<!-- Generator: Adobe Illustrator 25.1.0, SVG Export Plug-In . SVG Version: 6.00 Build 0)  -->
<svg version="1.1" id="skeleton" xmlns="http://www.w3.org/2000/svg" xmlns:xlink="http://www.w3.org/1999/xlink" x="0px" y="0px"
	 width="600px" height="175px" viewBox="0 0 600 175" style="enable-background:new 0 0 600 175;" xml:space="preserve">
<style type="text/css">
	.st0{fill:#FFFFFF;stroke:#333333;stroke-width:0.25;stroke-miterlimit:10;}
	.st1{fill:#D1D5DA;}
	.st2{fill:#21262D;}
	.st3{fill:#484F58;}
</style>
<g id="light">
	<path id="base" class="st0" d="M297.5,151.4c0,5-4.1,9.1-9.1,9.1H13.8c-5,0-9.1-4.1-9.1-9.1V29.6c0-5,4.1-9.1,9.1-9.1h274.6
		c5,0,9.1,4.1,9.1,9.1V151.4z"/>
	<g id="text">
		<path class="st1" d="M88.1,55.2c0,2-1.6,3.7-3.7,3.7H16.8c-2,0-3.7-1.6-3.7-3.7l0,0c0-2,1.6-3.7,3.7-3.7h67.7
			C86.5,51.6,88.1,53.2,88.1,55.2L88.1,55.2z"/>
		<path class="st1" d="M116.7,68.6c0,2-1.6,3.7-3.7,3.7H16.8c-2,0-3.7-1.6-3.7-3.7l0,0c0-2,1.6-3.7,3.7-3.7H113
			C115,64.9,116.7,66.6,116.7,68.6L116.7,68.6z"/>
		<path class="st1" d="M174.5,68.6c0,2-1.6,3.7-3.7,3.7h-46.5c-2,0-3.7-1.6-3.7-3.7l0,0c0-2,1.6-3.7,3.7-3.7h46.5
			C172.9,64.9,174.5,66.6,174.5,68.6L174.5,68.6z"/>
		<path class="st1" d="M211.2,68.6c0,2-1.6,3.7-3.7,3.7h-25.6c-2,0-3.7-1.6-3.7-3.7l0,0c0-2,1.6-3.7,3.7-3.7h25.6
			C209.5,64.9,211.2,66.6,211.2,68.6L211.2,68.6z"/>
		<path class="st1" d="M282,68.6c0,2-1.6,3.7-3.7,3.7h-58.6c-2,0-3.7-1.6-3.7-3.7l0,0c0-2,1.6-3.7,3.7-3.7h58.6
			C280.4,64.9,282,66.6,282,68.6L282,68.6z"/>
		<path class="st1" d="M178.5,79.6c0,2,1.6,3.7,3.7,3.7h96.3c2,0,3.7-1.6,3.7-3.7l0,0c0-2-1.6-3.7-3.7-3.7h-96.3
			C180.1,75.9,178.5,77.6,178.5,79.6L178.5,79.6z"/>
		<path class="st1" d="M120.7,79.6c0,2,1.6,3.7,3.7,3.7h46.5c2,0,3.7-1.6,3.7-3.7l0,0c0-2-1.6-3.7-3.7-3.7h-46.5
			C122.3,75.9,120.7,77.6,120.7,79.6L120.7,79.6z"/>
		<path class="st1" d="M84,79.6c0,2,1.6,3.7,3.7,3.7h25.6c2,0,3.7-1.6,3.7-3.7l0,0c0-2-1.6-3.7-3.7-3.7H87.7
			C85.6,75.9,84,77.6,84,79.6L84,79.6z"/>
		<path class="st1" d="M13.2,79.6c0,2,1.6,3.7,3.7,3.7h58.6c2,0,3.7-1.6,3.7-3.7l0,0c0-2-1.6-3.7-3.7-3.7H16.8
			C14.8,75.9,13.2,77.6,13.2,79.6L13.2,79.6z"/>
		<path class="st1" d="M93.7,90.5c0,2-1.6,3.7-3.7,3.7H16.8c-2,0-3.7-1.6-3.7-3.7l0,0c0-2,1.6-3.7,3.7-3.7H90
			C92,86.9,93.7,88.5,93.7,90.5L93.7,90.5z"/>
		<path class="st1" d="M145.6,90.4c0,2-1.6,3.7-3.7,3.7h-40.3c-2,0-3.7-1.6-3.7-3.7l0,0c0-2,1.6-3.7,3.7-3.7h40.3
			C144,86.7,145.6,88.4,145.6,90.4L145.6,90.4z"/>
		<path class="st1" d="M212.2,90.5c0,2-1.6,3.7-3.7,3.7H154c-2,0-3.7-1.6-3.7-3.7l0,0c0-2,1.6-3.7,3.7-3.7h54.5
			C210.6,86.9,212.2,88.5,212.2,90.5L212.2,90.5z"/>
		<path class="st1" d="M282.1,90.5c0,2-1.6,3.7-3.7,3.7h-58.6c-2,0-3.7-1.6-3.7-3.7l0,0c0-2,1.6-3.7,3.7-3.7h58.6
			C280.4,86.9,282.1,88.5,282.1,90.5L282.1,90.5z"/>
		<path class="st1" d="M116.7,101.5c0,2-1.6,3.7-3.7,3.7H16.7c-2,0-3.7-1.6-3.7-3.7l0,0c0-2,1.6-3.7,3.7-3.7H113
			C115,97.8,116.7,99.4,116.7,101.5L116.7,101.5z"/>
		<path class="st1" d="M174.5,101.5c0,2-1.6,3.7-3.7,3.7h-46.5c-2,0-3.7-1.6-3.7-3.7l0,0c0-2,1.6-3.7,3.7-3.7h46.5
			C172.8,97.8,174.5,99.4,174.5,101.5L174.5,101.5z"/>
		<path class="st1" d="M211.2,101.5c0,2-1.6,3.7-3.7,3.7h-25.6c-2,0-3.7-1.6-3.7-3.7l0,0c0-2,1.6-3.7,3.7-3.7h25.6
			C209.5,97.8,211.2,99.4,211.2,101.5L211.2,101.5z"/>
		<path class="st1" d="M282,101.5c0,2-1.6,3.7-3.7,3.7h-58.6c-2,0-3.7-1.6-3.7-3.7l0,0c0-2,1.6-3.7,3.7-3.7h58.6
			C280.3,97.8,282,99.4,282,101.5L282,101.5z"/>
		<path class="st1" d="M178.5,112.4c0,2,1.6,3.7,3.7,3.7h96.3c2,0,3.7-1.6,3.7-3.7l0,0c0-2-1.6-3.7-3.7-3.7h-96.3
			C180.1,108.8,178.5,110.4,178.5,112.4L178.5,112.4z"/>
		<path class="st1" d="M120.6,112.4c0,2,1.6,3.7,3.7,3.7h46.5c2,0,3.7-1.6,3.7-3.7l0,0c0-2-1.6-3.7-3.7-3.7h-46.5
			C122.3,108.8,120.6,110.4,120.6,112.4L120.6,112.4z"/>
		<path class="st1" d="M84,112.4c0,2,1.6,3.7,3.7,3.7h25.6c2,0,3.7-1.6,3.7-3.7l0,0c0-2-1.6-3.7-3.7-3.7H87.6
			C85.6,108.8,84,110.4,84,112.4L84,112.4z"/>
		<path class="st1" d="M13.1,112.4c0,2,1.6,3.7,3.7,3.7h58.6c2,0,3.7-1.6,3.7-3.7l0,0c0-2-1.6-3.7-3.7-3.7H16.8
			C14.8,108.8,13.1,110.4,13.1,112.4L13.1,112.4z"/>
		<path class="st1" d="M93.7,123.4c0,2-1.6,3.7-3.7,3.7H16.8c-2,0-3.7-1.6-3.7-3.7l0,0c0-2,1.6-3.7,3.7-3.7H90
			C92,119.8,93.7,121.4,93.7,123.4L93.7,123.4z"/>
		<path class="st1" d="M145.6,123.2c0,2-1.6,3.7-3.7,3.7h-40.3c-2,0-3.7-1.6-3.7-3.7l0,0c0-2,1.6-3.7,3.7-3.7h40.3
			C143.9,119.6,145.6,121.2,145.6,123.2L145.6,123.2z"/>
		<path class="st1" d="M212.2,123.4c0,2-1.6,3.7-3.7,3.7H154c-2,0-3.7-1.6-3.7-3.7l0,0c0-2,1.6-3.7,3.7-3.7h54.5
			C210.5,119.8,212.2,121.4,212.2,123.4L212.2,123.4z"/>
		<path class="st1" d="M282,123.4c0,2-1.6,3.7-3.7,3.7h-58.6c-2,0-3.7-1.6-3.7-3.7l0,0c0-2,1.6-3.7,3.7-3.7h58.6
			C280.4,119.8,282,121.4,282,123.4L282,123.4z"/>
	</g>
	<path id="close" class="st1" d="M279.1,43l-3.9-3.9l3.9-3.8c0.2-0.2,0.2-0.4,0-0.6l-1.1-1.1c-0.1-0.1-0.2-0.1-0.3-0.1
		s-0.2,0-0.3,0.1l-3.9,3.8l-3.9-3.8c-0.1-0.1-0.2-0.1-0.3-0.1s-0.2,0-0.3,0.1l-1.1,1.1c-0.2,0.2-0.2,0.4,0,0.6l3.9,3.8L268,43
		c-0.1,0.1-0.1,0.2-0.1,0.3s0,0.2,0.1,0.3l1.1,1.1c0.1,0.1,0.2,0.1,0.3,0.1c0.1,0,0.2,0,0.3-0.1l3.9-3.9l3.9,3.9
		c0.1,0.1,0.2,0.1,0.3,0.1c0.1,0,0.2,0,0.3-0.1l1.1-1.1c0.1-0.1,0.1-0.2,0.1-0.3C279.2,43.2,279.2,43.1,279.1,43z"/>
</g>
<g id="dark-new">
	<path id="base_2_" class="st2" d="M594.8,151.1c0,5-4.1,9.1-9.1,9.1H311.1c-5,0-9.1-4.1-9.1-9.1V29.3c0-5,4.1-9.1,9.1-9.1h274.6
		c5,0,9.1,4.1,9.1,9.1V151.1z"/>
	<g id="text_2_">
		<path class="st3" d="M385.4,54.9c0,2-1.6,3.7-3.7,3.7H314c-2,0-3.7-1.6-3.7-3.7l0,0c0-2,1.6-3.7,3.7-3.7h67.7
			C383.8,51.3,385.4,52.9,385.4,54.9L385.4,54.9z"/>
		<path class="st3" d="M414,68.3c0,2-1.6,3.7-3.7,3.7H314c-2,0-3.7-1.6-3.7-3.7l0,0c0-2,1.6-3.7,3.7-3.7h96.3
			C412.3,64.6,414,66.3,414,68.3L414,68.3z"/>
		<path class="st3" d="M471.8,68.3c0,2-1.6,3.7-3.7,3.7h-46.5c-2,0-3.7-1.6-3.7-3.7l0,0c0-2,1.6-3.7,3.7-3.7h46.5
			C470.1,64.6,471.8,66.3,471.8,68.3L471.8,68.3z"/>
		<path class="st3" d="M508.4,68.3c0,2-1.6,3.7-3.7,3.7h-25.6c-2,0-3.7-1.6-3.7-3.7l0,0c0-2,1.6-3.7,3.7-3.7h25.6
			C506.8,64.6,508.4,66.3,508.4,68.3L508.4,68.3z"/>
		<path class="st3" d="M579.3,68.3c0,2-1.6,3.7-3.7,3.7h-58.6c-2,0-3.7-1.6-3.7-3.7l0,0c0-2,1.6-3.7,3.7-3.7h58.6
			C577.6,64.6,579.3,66.3,579.3,68.3L579.3,68.3z"/>
		<path class="st3" d="M475.8,79.3c0,2,1.6,3.7,3.7,3.7h96.3c2,0,3.7-1.6,3.7-3.7l0,0c0-2-1.6-3.7-3.7-3.7h-96.3
			C477.4,75.6,475.8,77.3,475.8,79.3L475.8,79.3z"/>
		<path class="st3" d="M417.9,79.3c0,2,1.6,3.7,3.7,3.7h46.5c2,0,3.7-1.6,3.7-3.7l0,0c0-2-1.6-3.7-3.7-3.7h-46.5
			C419.6,75.6,417.9,77.3,417.9,79.3L417.9,79.3z"/>
		<path class="st3" d="M381.3,79.3c0,2,1.6,3.7,3.7,3.7h25.6c2,0,3.7-1.6,3.7-3.7l0,0c0-2-1.6-3.7-3.7-3.7h-25.6
			C382.9,75.6,381.3,77.3,381.3,79.3L381.3,79.3z"/>
		<path class="st3" d="M310.4,79.3c0,2,1.6,3.7,3.7,3.7h58.6c2,0,3.7-1.6,3.7-3.7l0,0c0-2-1.6-3.7-3.7-3.7h-58.6
			C312.1,75.6,310.4,77.3,310.4,79.3L310.4,79.3z"/>
		<path class="st3" d="M390.9,90.2c0,2-1.6,3.7-3.7,3.7h-73.2c-2,0-3.7-1.6-3.7-3.7l0,0c0-2,1.6-3.7,3.7-3.7h73.2
			C389.3,86.6,390.9,88.2,390.9,90.2L390.9,90.2z"/>
		<path class="st3" d="M442.9,90.1c0,2-1.6,3.7-3.7,3.7h-40.3c-2,0-3.7-1.6-3.7-3.7l0,0c0-2,1.6-3.7,3.7-3.7h40.3
			C441.2,86.4,442.9,88,442.9,90.1L442.9,90.1z"/>
		<path class="st3" d="M509.5,90.2c0,2-1.6,3.7-3.7,3.7h-54.5c-2,0-3.7-1.6-3.7-3.7l0,0c0-2,1.6-3.7,3.7-3.7h54.5
			C507.8,86.6,509.5,88.2,509.5,90.2L509.5,90.2z"/>
		<path class="st3" d="M579.3,90.2c0,2-1.6,3.7-3.7,3.7h-58.6c-2,0-3.7-1.6-3.7-3.7l0,0c0-2,1.6-3.7,3.7-3.7h58.6
			C577.7,86.6,579.3,88.2,579.3,90.2L579.3,90.2z"/>
		<path class="st3" d="M413.9,101.2c0,2-1.6,3.7-3.7,3.7H314c-2,0-3.7-1.6-3.7-3.7l0,0c0-2,1.6-3.7,3.7-3.7h96.3
			C412.3,97.5,413.9,99.1,413.9,101.2L413.9,101.2z"/>
		<path class="st3" d="M471.8,101.2c0,2-1.6,3.7-3.7,3.7h-46.5c-2,0-3.7-1.6-3.7-3.7l0,0c0-2,1.6-3.7,3.7-3.7h46.5
			C470.1,97.5,471.8,99.1,471.8,101.2L471.8,101.2z"/>
		<path class="st3" d="M508.4,101.2c0,2-1.6,3.7-3.7,3.7h-25.6c-2,0-3.7-1.6-3.7-3.7l0,0c0-2,1.6-3.7,3.7-3.7h25.6
			C506.8,97.5,508.4,99.1,508.4,101.2L508.4,101.2z"/>
		<path class="st3" d="M579.3,101.2c0,2-1.6,3.7-3.7,3.7H517c-2,0-3.7-1.6-3.7-3.7l0,0c0-2,1.6-3.7,3.7-3.7h58.6
			C577.6,97.5,579.3,99.1,579.3,101.2L579.3,101.2z"/>
		<path class="st3" d="M475.7,112.1c0,2,1.6,3.7,3.7,3.7h96.3c2,0,3.7-1.6,3.7-3.7l0,0c0-2-1.6-3.7-3.7-3.7h-96.3
			C477.4,108.5,475.7,110.1,475.7,112.1L475.7,112.1z"/>
		<path class="st3" d="M417.9,112.1c0,2,1.6,3.7,3.7,3.7H468c2,0,3.7-1.6,3.7-3.7l0,0c0-2-1.6-3.7-3.7-3.7h-46.5
			C419.5,108.5,417.9,110.1,417.9,112.1L417.9,112.1z"/>
		<path class="st3" d="M381.2,112.1c0,2,1.6,3.7,3.7,3.7h25.6c2,0,3.7-1.6,3.7-3.7l0,0c0-2-1.6-3.7-3.7-3.7h-25.6
			C382.9,108.5,381.2,110.1,381.2,112.1L381.2,112.1z"/>
		<path class="st3" d="M310.4,112.1c0,2,1.6,3.7,3.7,3.7h58.6c2,0,3.7-1.6,3.7-3.7l0,0c0-2-1.6-3.7-3.7-3.7h-58.6
			C312,108.5,310.4,110.1,310.4,112.1L310.4,112.1z"/>
		<path class="st3" d="M390.9,123.1c0,2-1.6,3.7-3.7,3.7h-73.2c-2,0-3.7-1.6-3.7-3.7l0,0c0-2,1.6-3.7,3.7-3.7h73.2
			C389.3,119.5,390.9,121.1,390.9,123.1L390.9,123.1z"/>
		<path class="st3" d="M442.8,122.9c0,2-1.6,3.7-3.7,3.7h-40.3c-2,0-3.7-1.6-3.7-3.7l0,0c0-2,1.6-3.7,3.7-3.7h40.3
			C441.2,119.3,442.8,120.9,442.8,122.9L442.8,122.9z"/>
		<path class="st3" d="M509.5,123.1c0,2-1.6,3.7-3.7,3.7h-54.5c-2,0-3.7-1.6-3.7-3.7l0,0c0-2,1.6-3.7,3.7-3.7h54.5
			C507.8,119.5,509.5,121.1,509.5,123.1L509.5,123.1z"/>
		<path class="st3" d="M579.3,123.1c0,2-1.6,3.7-3.7,3.7h-58.6c-2,0-3.7-1.6-3.7-3.7l0,0c0-2,1.6-3.7,3.7-3.7h58.6
			C577.7,119.5,579.3,121.1,579.3,123.1L579.3,123.1z"/>
	</g>
	<path id="close_1_" class="st3" d="M576.3,42.7l-3.9-3.9l3.9-3.8c0.2-0.2,0.2-0.4,0-0.6l-1.1-1.1c-0.1-0.1-0.2-0.1-0.3-0.1
		s-0.2,0-0.3,0.1l-3.9,3.8l-3.9-3.8c-0.1-0.1-0.2-0.1-0.3-0.1s-0.2,0-0.3,0.1l-1.1,1.1c-0.2,0.2-0.2,0.4,0,0.6l3.9,3.8l-3.9,3.9
		c-0.1,0.1-0.1,0.2-0.1,0.3c0,0.1,0,0.2,0.1,0.3l1.1,1.1c0.1,0.1,0.2,0.1,0.3,0.1c0.1,0,0.2,0,0.3-0.1l3.9-3.9l3.9,3.9
		c0.1,0.1,0.2,0.1,0.3,0.1c0.1,0,0.2,0,0.3-0.1l1.1-1.1c0.1-0.1,0.1-0.2,0.1-0.3C576.5,42.8,576.4,42.7,576.3,42.7z"/>
</g>
</svg>
