<?xml version="1.0" encoding="utf-8"?>
<!-- Generator: Adobe Illustrator 25.2.0, SVG Export Plug-In . SVG Version: 6.00 Build 0)  -->
<svg version="1.1" id="skeleton" xmlns="http://www.w3.org/2000/svg" xmlns:xlink="http://www.w3.org/1999/xlink" x="0px" y="0px"
	 width="600px" height="175px" viewBox="0 0 600 175" style="enable-background:new 0 0 600 175;" xml:space="preserve">
<g id="light">
	<path id="base" style="fill:#D1D5DA;" d="M297.5188293,120.4979858c0,11-9,20-20,20H24.7398415c-10.999999,0-20-9-20-20V60.502388
		c0-11,9-20,20-20h252.7789917c11,0,20,9,20,20V120.4979858z"/>
	<g id="text">
		<path style="fill:#747577;" d="M261.573822,90.5498734c0,6.722229-5.5001221,12.2222137-12.2223663,12.2222137H53.7960396
			c-6.7222328,0-12.2222176-5.4999847-12.2222176-12.2222137l0,0c0-6.722229,5.4999847-12.2222137,12.2222176-12.2222137
			h195.5554199C256.0737,78.3276596,261.573822,83.8276443,261.573822,90.5498734L261.573822,90.5498734z"/>
	</g>
</g>
<g id="dark">
	<path id="base_1_" style="fill:#21262D;" d="M595.2601318,120.4979858c0,11-9,20-20,20H322.4811707c-11,0-20-9-20-20V60.502388
		c0-11,9-20,20-20h252.7789612c11,0,20,9,20,20V120.4979858z"/>
	<g id="text_1_">
		<path style="fill:#484F58;" d="M561.5739136,90.5498734c0,6.7222366-5.500061,12.222229-12.222168,12.222229H353.7960815
			c-6.7223206,0-12.222168-5.4999924-12.222168-12.222229l0,0c0-6.7222366,5.4998474-12.222229,12.222168-12.222229h195.5556641
			C556.0738525,78.3276443,561.5739136,83.8276367,561.5739136,90.5498734L561.5739136,90.5498734z"/>
	</g>
</g>
</svg>
