<?xml version="1.0" encoding="utf-8"?>
<!-- Generator: Adobe Illustrator 25.1.0, SVG Export Plug-In . SVG Version: 6.00 Build 0)  -->
<svg version="1.1" id="skeleton" xmlns="http://www.w3.org/2000/svg" xmlns:xlink="http://www.w3.org/1999/xlink" x="0px" y="0px"
	 width="600px" height="175px" viewBox="0 0 600 175" style="enable-background:new 0 0 600 175;" xml:space="preserve">
<style type="text/css">
	.st0{fill:#FFFFFF;stroke:#333333;stroke-width:0.25;stroke-miterlimit:10;}
	.st1{fill:#D1D5DA;}
	.st2{fill:#BDDDC5;}
	.st3{fill:#FFFFFF;}
	.st4{fill:#21262D;}
	.st5{fill:#484F58;}
	.st6{fill:#2D333A;}
	.st7{fill:#3FB950;}
</style>
<g id="light">
	<path id="base" class="st0" d="M297.5,163.9946899c0,5.0325623-4.1175537,9.150116-9.150116,9.150116H11.6501245
		c-5.0325685,0-9.1501245-4.1175537-9.1501245-9.150116V11.005311c0-5.0325685,4.1175561-9.1501245,9.1501245-9.1501245H288.349884
		c5.0325623,0,9.150116,4.1175556,9.150116,9.1501245V163.9946899z"/>
	<g id="text">
		<path class="st1" d="M88.1451569,17.227396c0,2.0130272-1.6470184,3.6600494-3.6600494,3.6600494H16.7741947
			c-2.0130281,0-3.6600513-1.6470222-3.6600513-3.6600494l0,0c0-2.0130281,1.6470232-3.6600504,3.6600513-3.6600504h67.7109146
			C86.4981384,13.5673456,88.1451569,15.2143679,88.1451569,17.227396L88.1451569,17.227396z"/>
		<path class="st1" d="M116.6935501,30.586668c0,2.0130291-1.6470261,3.6600513-3.6600571,3.6600513H16.7741947
			c-2.0130281,0-3.6600513-1.6470222-3.6600513-3.6600513l0,0c0-2.0130253,1.6470232-3.6600494,3.6600513-3.6600494h96.2593002
			C115.046524,26.9266186,116.6935501,28.5736427,116.6935501,30.586668L116.6935501,30.586668z"/>
		<path class="st1" d="M174.5223236,30.5866852c0,2.0130272-1.6470032,3.6600533-3.6600342,3.6600533h-46.4826355
			c-2.013031,0-3.6600494-1.6470261-3.6600494-3.6600533l0,0c0-2.0130272,1.6470184-3.6600494,3.6600494-3.6600494h46.4826355
			C172.8753204,26.9266357,174.5223236,28.573658,174.5223236,30.5866852L174.5223236,30.5866852z"/>
		<path class="st1" d="M211.1863861,30.586668c0,2.0130291-1.6470032,3.6600513-3.6600342,3.6600513h-25.6203613
			c-2.0130157,0-3.6600342-1.6470222-3.6600342-3.6600513l0,0c0-2.0130253,1.6470184-3.6600494,3.6600342-3.6600494h25.6203613
			C209.5393829,26.9266186,211.1863861,28.5736427,211.1863861,30.586668L211.1863861,30.586668z"/>
		<path class="st1" d="M282.0198975,30.586668c0,2.0130291-1.6470032,3.6600513-3.6600342,3.6600513h-58.560791
			c-2.0130157,0-3.6600494-1.6470222-3.6600494-3.6600513l0,0c0-2.0130253,1.6470337-3.6600494,3.6600494-3.6600494h58.560791
			C280.3728943,26.9266186,282.0198975,28.5736427,282.0198975,30.586668L282.0198975,30.586668z"/>
		<path class="st1" d="M178.4944458,41.5670624c0,2.0130272,1.6470184,3.6600494,3.6600494,3.6600494h96.2592926
			c2.013031,0,3.6600952-1.6470222,3.6600952-3.6600494l0,0c0-2.0130234-1.6470642-3.6600456-3.6600952-3.6600456h-96.2592926
			C180.1414642,37.9070168,178.4944458,39.554039,178.4944458,41.5670624L178.4944458,41.5670624z"/>
		<path class="st1" d="M120.6656647,41.5670815c0,2.0130272,1.6470261,3.6600494,3.6600494,3.6600494h46.4826355
			c2.0130157,0,3.6600494-1.6470222,3.6600494-3.6600494l0,0c0-2.0130234-1.6470337-3.6600494-3.6600494-3.6600494h-46.4826355
			C122.3126907,37.907032,120.6656647,39.5540581,120.6656647,41.5670815L120.6656647,41.5670815z"/>
		<path class="st1" d="M84.0015945,41.5670624c0,2.0130272,1.6470261,3.6600494,3.6600494,3.6600494h25.6203537
			c2.0130234,0,3.6600494-1.6470222,3.6600494-3.6600494l0,0c0-2.0130234-1.6470261-3.6600456-3.6600494-3.6600456H87.661644
			C85.6486206,37.9070168,84.0015945,39.554039,84.0015945,41.5670624L84.0015945,41.5670624z"/>
		<path class="st1" d="M13.1680813,41.5670624c0,2.0130272,1.6470222,3.6600494,3.6600494,3.6600494h58.560791
			c2.013031,0,3.6600494-1.6470222,3.6600494-3.6600494l0,0c0-2.0130234-1.6470184-3.6600456-3.6600494-3.6600456h-58.560791
			C14.8151035,37.9070168,13.1680813,39.554039,13.1680813,41.5670624L13.1680813,41.5670624z"/>
		<path class="st1" d="M93.6891861,52.5474777c0,2.013031-1.6470184,3.6600533-3.6600494,3.6600533H16.8281422
			c-2.0130262,0-3.6600485-1.6470222-3.6600485-3.6600533l0,0c0-2.0130272,1.6470222-3.6600494,3.6600485-3.6600494h73.2009964
			C92.0421677,48.8874283,93.6891861,50.5344505,93.6891861,52.5474777L93.6891861,52.5474777z"/>
		<path class="st1" d="M145.6079407,52.3638725c0,2.0130272-1.6470184,3.6600494-3.6600494,3.6600494h-40.2605515
			c-2.0130234,0-3.6600494-1.6470222-3.6600494-3.6600494l0,0c0-2.0130272,1.6470261-3.6600494,3.6600494-3.6600494h40.2605515
			C143.9609222,48.7038231,145.6079407,50.3508453,145.6079407,52.3638725L145.6079407,52.3638725z"/>
		<path class="st1" d="M212.2208405,52.5474777c0,2.013031-1.6470184,3.6600533-3.6600494,3.6600533h-54.534729
			c-2.013031,0-3.6600647-1.6470222-3.6600647-3.6600533l0,0c0-2.0130272,1.6470337-3.6600494,3.6600647-3.6600494h54.534729
			C210.573822,48.8874283,212.2208405,50.5344505,212.2208405,52.5474777L212.2208405,52.5474777z"/>
		<path class="st1" d="M282.0738831,52.5474777c0,2.013031-1.6470642,3.6600533-3.6600952,3.6600533h-58.5607758
			c-2.013031,0-3.6600494-1.6470222-3.6600494-3.6600533l0,0c0-2.0130272,1.6470184-3.6600494,3.6600494-3.6600494h58.5607758
			C280.4268188,48.8874283,282.0738831,50.5344505,282.0738831,52.5474777L282.0738831,52.5474777z"/>
	</g>
	<g id="buttons">
		<path id="reject_1_" class="st1" d="M230.6270447,83.7555466c0,4.0260468-3.2940521,7.3200912-7.3200989,7.3200912h-45.7506256
			c-4.026062,0-7.3200989-3.2940445-7.3200989-7.3200912l0,0c0-4.026062,3.2940369-7.3201065,7.3200989-7.3201065h45.7506256
			C227.3329926,76.4354401,230.6270447,79.7294846,230.6270447,83.7555466L230.6270447,83.7555466z"/>
		<path id="accept" class="st2" d="M288.0474548,83.7555466c0,4.0260468-3.2940674,7.3200912-7.3201294,7.3200912h-37.6079559
			c-4.026062,0-7.3200989-3.2940445-7.3200989-7.3200912l0,0c0-4.026062,3.2940369-7.3201065,7.3200989-7.3201065h37.6079559
			C284.7533875,76.4354401,288.0474548,79.7294846,288.0474548,83.7555466L288.0474548,83.7555466z"/>
	</g>
	<g id="groups">
		<g id="group">
			<g>
				<path id="head_14_" class="st1" d="M49.768589,107.1952667c0,2.013031-1.6470222,3.6600494-3.6600494,3.6600494H16.8281422
					c-2.0130262,0-3.6600485-1.6470184-3.6600485-3.6600494l0,0c0-2.0130234,1.6470222-3.6600494,3.6600485-3.6600494h29.2803974
					C48.1215668,103.5352173,49.768589,105.1822433,49.768589,107.1952667L49.768589,107.1952667z"/>
				<path class="st1" d="M73.1321869,118.2358551c0,1.0065155-0.8235092,1.8300247-1.8300171,1.8300247H15.498106
					c-1.0065126,0-1.8300238-0.8235092-1.8300238-1.8300247l0,0c0-1.0065155,0.8235111-1.8300247,1.8300238-1.8300247h55.8040619
					C72.3086777,116.4058304,73.1321869,117.2293396,73.1321869,118.2358551L73.1321869,118.2358551z"/>
				<path class="st1" d="M64.4657211,124.0656662c0,1.0065155-0.8235092,1.8300247-1.8300247,1.8300247H15.498106
					c-1.0065126,0-1.8300238-0.8235092-1.8300238-1.8300247l0,0c0-1.0065155,0.8235111-1.8300247,1.8300238-1.8300247h47.1375885
					C63.6422119,122.2356415,64.4657211,123.0591507,64.4657211,124.0656662L64.4657211,124.0656662z"/>
				<path class="st1" d="M54.0492935,129.8954773c0,1.0065155-0.823513,1.8300171-1.8300247,1.8300171H15.498106
					c-1.0065126,0-1.8300238-0.8235016-1.8300238-1.8300171l0,0c0-1.0065155,0.8235111-1.8300171,1.8300238-1.8300171h36.7211609
					C53.2257805,128.0654602,54.0492935,128.8889618,54.0492935,129.8954773L54.0492935,129.8954773z"/>
				<path class="st1" d="M66.3823471,135.7252808c0,1.0065155-0.8235168,1.8300323-1.8300247,1.8300323H15.498106
					c-1.0065126,0-1.8300238-0.8235168-1.8300238-1.8300323l0,0c0-1.0065155,0.8235111-1.8300171,1.8300238-1.8300171h49.0542145
					C65.5588303,133.8952637,66.3823471,134.7187653,66.3823471,135.7252808L66.3823471,135.7252808z"/>
				<path class="st1" d="M68.6322937,141.5550995c0,1.0065155-0.8235092,1.8300171-1.8300247,1.8300171H15.498106
					c-1.0065126,0-1.8300238-0.8235016-1.8300238-1.8300171l0,0c0-1.0065155,0.8235111-1.8300323,1.8300238-1.8300323H66.802269
					C67.8087845,139.7250671,68.6322937,140.548584,68.6322937,141.5550995L68.6322937,141.5550995z"/>
				<path class="st1" d="M53.2993126,147.384903c0,1.0065155-0.8235092,1.8300171-1.8300247,1.8300171H15.498106
					c-1.0065126,0-1.8300238-0.8235016-1.8300238-1.8300171l0,0c0-1.0065155,0.8235111-1.8300171,1.8300238-1.8300171h35.9711838
					C52.4758034,145.5548859,53.2993126,146.3783875,53.2993126,147.384903L53.2993126,147.384903z"/>
				<path class="st1" d="M72.6322021,153.2147064c0,1.0065155-0.8235092,1.8300323-1.8300247,1.8300323H15.498106
					c-1.0065126,0-1.8300238-0.8235168-1.8300238-1.8300323l0,0c0-1.0065155,0.8235111-1.8300171,1.8300238-1.8300171h55.3040695
					C71.8086929,151.3846893,72.6322021,152.2081909,72.6322021,153.2147064L72.6322021,153.2147064z"/>
				<path class="st1" d="M43.1501427,159.0445251c0,1.0065155-0.8235092,1.8300171-1.8300247,1.8300171H15.498106
					c-1.0065126,0-1.8300238-0.8235016-1.8300238-1.8300171l0,0c0-1.0065155,0.8235111-1.8300171,1.8300238-1.8300171H41.320118
					C42.3266335,157.2145081,43.1501427,158.0380096,43.1501427,159.0445251L43.1501427,159.0445251z"/>
			</g>
			<g>
				<path id="head_13_" class="st1" d="M121.2406464,107.1952667c0,2.013031-1.6470261,3.6600494-3.6600494,3.6600494H88.3001938
					c-2.0130234,0-3.6600494-1.6470184-3.6600494-3.6600494l0,0c0-2.0130234,1.6470261-3.6600494,3.6600494-3.6600494h29.2804031
					C119.5936203,103.5352173,121.2406464,105.1822433,121.2406464,107.1952667L121.2406464,107.1952667z"/>
				<path class="st1" d="M144.604248,118.2358551c0,1.0065155-0.8235168,1.8300247-1.8300323,1.8300247H86.9701614
					c-1.0065155,0-1.8300247-0.8235092-1.8300247-1.8300247l0,0c0-1.0065155,0.8235092-1.8300247,1.8300247-1.8300247h55.8040543
					C143.7807312,116.4058304,144.604248,117.2293396,144.604248,118.2358551L144.604248,118.2358551z"/>
				<path class="st1" d="M135.9377747,124.0656662c0,1.0065155-0.8235016,1.8300247-1.8300171,1.8300247H86.9701614
					c-1.0065155,0-1.8300247-0.8235092-1.8300247-1.8300247l0,0c0-1.0065155,0.8235092-1.8300247,1.8300247-1.8300247h47.1375961
					C135.1142731,122.2356415,135.9377747,123.0591507,135.9377747,124.0656662L135.9377747,124.0656662z"/>
				<path class="st1" d="M125.521347,129.8954773c0,1.0065155-0.8235168,1.8300171-1.8300247,1.8300171H86.9701614
					c-1.0065155,0-1.8300247-0.8235016-1.8300247-1.8300171l0,0c0-1.0065155,0.8235092-1.8300171,1.8300247-1.8300171h36.7211609
					C124.6978302,128.0654602,125.521347,128.8889618,125.521347,129.8954773L125.521347,129.8954773z"/>
				<path class="st1" d="M137.8544006,135.7252808c0,1.0065155-0.8235168,1.8300323-1.8300323,1.8300323H86.9701614
					c-1.0065155,0-1.8300247-0.8235168-1.8300247-1.8300323l0,0c0-1.0065155,0.8235092-1.8300171,1.8300247-1.8300171h49.0542068
					C137.0308838,133.8952637,137.8544006,134.7187653,137.8544006,135.7252808L137.8544006,135.7252808z"/>
				<path class="st1" d="M140.1043549,141.5550995c0,1.0065155-0.8235168,1.8300171-1.8300323,1.8300171H86.9701614
					c-1.0065155,0-1.8300247-0.8235016-1.8300247-1.8300171l0,0c0-1.0065155,0.8235092-1.8300323,1.8300247-1.8300323h51.3041611
					C139.280838,139.7250671,140.1043549,140.548584,140.1043549,141.5550995L140.1043549,141.5550995z"/>
				<path class="st1" d="M124.7713623,147.384903c0,1.0065155-0.8235092,1.8300171-1.8300247,1.8300171H86.9701614
					c-1.0065155,0-1.8300247-0.8235016-1.8300247-1.8300171l0,0c0-1.0065155,0.8235092-1.8300171,1.8300247-1.8300171h35.9711761
					C123.9478531,145.5548859,124.7713623,146.3783875,124.7713623,147.384903L124.7713623,147.384903z"/>
				<path class="st1" d="M144.1042633,153.2147064c0,1.0065155-0.8235168,1.8300323-1.8300323,1.8300323H86.9701614
					c-1.0065155,0-1.8300247-0.8235168-1.8300247-1.8300323l0,0c0-1.0065155,0.8235092-1.8300171,1.8300247-1.8300171h55.3040695
					C143.2807465,151.3846893,144.1042633,152.2081909,144.1042633,153.2147064L144.1042633,153.2147064z"/>
				<path class="st1" d="M114.6221924,159.0445251c0,1.0065155-0.8235092,1.8300171-1.8300247,1.8300171H86.9701614
					c-1.0065155,0-1.8300247-0.8235016-1.8300247-1.8300171l0,0c0-1.0065155,0.8235092-1.8300171,1.8300247-1.8300171h25.8220062
					C113.7986832,157.2145081,114.6221924,158.0380096,114.6221924,159.0445251L114.6221924,159.0445251z"/>
				<path class="st1" d="M144.604248,107.1952667c0,2.4156342-1.9764252,4.392067-4.3920593,4.392067h-7.6860962
					c-2.4156494,0-4.3920746-1.9764328-4.3920746-4.392067l0,0c0-2.4156342,1.9764252-4.3920593,4.3920746-4.3920593h7.6860962
					C142.6278229,102.8032074,144.604248,104.7796326,144.604248,107.1952667L144.604248,107.1952667z"/>
				<circle class="st3" cx="132.7090759" cy="107.1952667" r="3.6600568"/>
			</g>
			<g>
				<path id="head_12_" class="st1" d="M192.7127075,107.1952667c0,2.013031-1.6470337,3.6600494-3.6600647,3.6600494h-29.2803955
					c-2.013031,0-3.6600494-1.6470184-3.6600494-3.6600494l0,0c0-2.0130234,1.6470184-3.6600494,3.6600494-3.6600494h29.2803955
					C191.0656738,103.5352173,192.7127075,105.1822433,192.7127075,107.1952667L192.7127075,107.1952667z"/>
				<path class="st1" d="M216.0762939,118.2358551c0,1.0065155-0.8235016,1.8300247-1.8300171,1.8300247H158.442215
					c-1.0065155,0-1.8300323-0.8235092-1.8300323-1.8300247l0,0c0-1.0065155,0.8235168-1.8300247,1.8300323-1.8300247h55.8040619
					C215.2527924,116.4058304,216.0762939,117.2293396,216.0762939,118.2358551L216.0762939,118.2358551z"/>
				<path class="st1" d="M207.4098206,124.0656662c0,1.0065155-0.8235016,1.8300247-1.8300171,1.8300247H158.442215
					c-1.0065155,0-1.8300323-0.8235092-1.8300323-1.8300247l0,0c0-1.0065155,0.8235168-1.8300247,1.8300323-1.8300247h47.1375885
					C206.586319,122.2356415,207.4098206,123.0591507,207.4098206,124.0656662L207.4098206,124.0656662z"/>
				<path class="st1" d="M196.9934082,129.8954773c0,1.0065155-0.8235321,1.8300171-1.8300476,1.8300171H158.442215
					c-1.0065155,0-1.8300323-0.8235016-1.8300323-1.8300171l0,0c0-1.0065155,0.8235168-1.8300171,1.8300323-1.8300171h36.7211456
					C196.1698761,128.0654602,196.9934082,128.8889618,196.9934082,129.8954773L196.9934082,129.8954773z"/>
				<path class="st1" d="M209.3264465,135.7252808c0,1.0065155-0.8235016,1.8300323-1.8300171,1.8300323H158.442215
					c-1.0065155,0-1.8300323-0.8235168-1.8300323-1.8300323l0,0c0-1.0065155,0.8235168-1.8300171,1.8300323-1.8300171h49.0542145
					C208.5029449,133.8952637,209.3264465,134.7187653,209.3264465,135.7252808L209.3264465,135.7252808z"/>
				<path class="st1" d="M211.5764008,141.5550995c0,1.0065155-0.8235168,1.8300171-1.8300323,1.8300171H158.442215
					c-1.0065155,0-1.8300323-0.8235016-1.8300323-1.8300171l0,0c0-1.0065155,0.8235168-1.8300323,1.8300323-1.8300323h51.3041534
					C210.7528839,139.7250671,211.5764008,140.548584,211.5764008,141.5550995L211.5764008,141.5550995z"/>
				<path class="st1" d="M196.2434235,147.384903c0,1.0065155-0.8235321,1.8300171-1.8300323,1.8300171H158.442215
					c-1.0065155,0-1.8300323-0.8235016-1.8300323-1.8300171l0,0c0-1.0065155,0.8235168-1.8300171,1.8300323-1.8300171h35.9711761
					C195.4198914,145.5548859,196.2434235,146.3783875,196.2434235,147.384903L196.2434235,147.384903z"/>
				<path class="st1" d="M215.5763092,153.2147064c0,1.0065155-0.8235168,1.8300323-1.8300323,1.8300323H158.442215
					c-1.0065155,0-1.8300323-0.8235168-1.8300323-1.8300323l0,0c0-1.0065155,0.8235168-1.8300171,1.8300323-1.8300171h55.3040619
					C214.7527924,151.3846893,215.5763092,152.2081909,215.5763092,153.2147064L215.5763092,153.2147064z"/>
				<path class="st1" d="M186.0942383,159.0445251c0,1.0065155-0.8235016,1.8300171-1.8300171,1.8300171H158.442215
					c-1.0065155,0-1.8300323-0.8235016-1.8300323-1.8300171l0,0c0-1.0065155,0.8235168-1.8300171,1.8300323-1.8300171h25.8220062
					C185.2707367,157.2145081,186.0942383,158.0380096,186.0942383,159.0445251L186.0942383,159.0445251z"/>
				<path class="st1" d="M216.0762939,107.1952667c0,2.4156342-1.9764252,4.392067-4.3920593,4.392067h-7.6860962
					c-2.4156494,0-4.3920593-1.9764328-4.3920593-4.392067l0,0c0-2.4156342,1.9764099-4.3920593,4.3920593-4.3920593h7.6860962
					C214.0998688,102.8032074,216.0762939,104.7796326,216.0762939,107.1952667L216.0762939,107.1952667z"/>
				<circle class="st3" cx="204.1811371" cy="107.1952667" r="3.6600568"/>
			</g>
			<g>
				<path id="head_11_" class="st1" d="M264.1847534,107.1952667c0,2.013031-1.6470337,3.6600494-3.6600342,3.6600494h-29.280426
					c-2.0130157,0-3.6600494-1.6470184-3.6600494-3.6600494l0,0c0-2.0130234,1.6470337-3.6600494,3.6600494-3.6600494h29.280426
					C262.5377197,103.5352173,264.1847534,105.1822433,264.1847534,107.1952667L264.1847534,107.1952667z"/>
				<path class="st1" d="M287.5483398,118.2358551c0,1.0065155-0.8235168,1.8300247-1.8300171,1.8300247h-55.8040619
					c-1.0065155,0-1.8300171-0.8235092-1.8300171-1.8300247l0,0c0-1.0065155,0.8235016-1.8300247,1.8300171-1.8300247h55.8040619
					C286.724823,116.4058304,287.5483398,117.2293396,287.5483398,118.2358551L287.5483398,118.2358551z"/>
				<path class="st1" d="M278.8818665,124.0656662c0,1.0065155-0.8234863,1.8300247-1.8299866,1.8300247h-47.137619
					c-1.0065155,0-1.8300171-0.8235092-1.8300171-1.8300247l0,0c0-1.0065155,0.8235016-1.8300247,1.8300171-1.8300247h47.137619
					C278.0583801,122.2356415,278.8818665,123.0591507,278.8818665,124.0656662L278.8818665,124.0656662z"/>
				<path class="st1" d="M268.4654541,129.8954773c0,1.0065155-0.8235168,1.8300171-1.8300171,1.8300171h-36.7211761
					c-1.0065155,0-1.8300171-0.8235016-1.8300171-1.8300171l0,0c0-1.0065155,0.8235016-1.8300171,1.8300171-1.8300171h36.7211761
					C267.6419373,128.0654602,268.4654541,128.8889618,268.4654541,129.8954773L268.4654541,129.8954773z"/>
				<path class="st1" d="M280.7985229,135.7252808c0,1.0065155-0.8235474,1.8300323-1.8300476,1.8300323h-49.0542145
					c-1.0065155,0-1.8300171-0.8235168-1.8300171-1.8300323l0,0c0-1.0065155,0.8235016-1.8300171,1.8300171-1.8300171h49.0542145
					C279.9749756,133.8952637,280.7985229,134.7187653,280.7985229,135.7252808L280.7985229,135.7252808z"/>
				<path class="st1" d="M283.0484314,141.5550995c0,1.0065155-0.8234863,1.8300171-1.8299866,1.8300171h-51.304184
					c-1.0065155,0-1.8300171-0.8235016-1.8300171-1.8300171l0,0c0-1.0065155,0.8235016-1.8300323,1.8300171-1.8300323h51.304184
					C282.2249451,139.7250671,283.0484314,140.548584,283.0484314,141.5550995L283.0484314,141.5550995z"/>
				<path class="st1" d="M267.7154541,147.384903c0,1.0065155-0.8235168,1.8300171-1.8300171,1.8300171h-35.9711761
					c-1.0065155,0-1.8300171-0.8235016-1.8300171-1.8300171l0,0c0-1.0065155,0.8235016-1.8300171,1.8300171-1.8300171h35.9711761
					C266.8919373,145.5548859,267.7154541,146.3783875,267.7154541,147.384903L267.7154541,147.384903z"/>
				<path class="st1" d="M287.0483704,153.2147064c0,1.0065155-0.8235168,1.8300323-1.8300476,1.8300323h-55.3040619
					c-1.0065155,0-1.8300171-0.8235168-1.8300171-1.8300323l0,0c0-1.0065155,0.8235016-1.8300171,1.8300171-1.8300171h55.3040619
					C286.2248535,151.3846893,287.0483704,152.2081909,287.0483704,153.2147064L287.0483704,153.2147064z"/>
				<path class="st1" d="M257.5663147,159.0445251c0,1.0065155-0.8235168,1.8300171-1.8300476,1.8300171h-25.8220062
					c-1.0065155,0-1.8300171-0.8235016-1.8300171-1.8300171l0,0c0-1.0065155,0.8235016-1.8300171,1.8300171-1.8300171h25.8220062
					C256.7427979,157.2145081,257.5663147,158.0380096,257.5663147,159.0445251L257.5663147,159.0445251z"/>
				<path class="st1" d="M287.5483398,107.1952667c0,2.4156342-1.9764099,4.392067-4.3920593,4.392067h-7.6860962
					c-2.4156189,0-4.3920593-1.9764328-4.3920593-4.392067l0,0c0-2.4156342,1.9764404-4.3920593,4.3920593-4.3920593h7.6860962
					C285.5719299,102.8032074,287.5483398,104.7796326,287.5483398,107.1952667L287.5483398,107.1952667z"/>
				<circle class="st3" cx="275.6531982" cy="107.1952667" r="3.6600418"/>
			</g>
		</g>
	</g>
</g>
<g id="dark">
	<path id="base_1_" class="st4" d="M597.5,163.9946899c0,5.0325623-4.1176147,9.150116-9.1500854,9.150116H311.650116
		c-5.0325623,0-9.150116-4.1175537-9.150116-9.150116V11.005311c0-5.0325685,4.1175537-9.1501245,9.150116-9.1501245h276.6997986
		c5.0324707,0,9.1500854,4.1175556,9.1500854,9.1501245V163.9946899z"/>
	<g id="text_1_">
		<path class="st5" d="M388.1451721,17.227396c0,2.0130272-1.6470337,3.6600494-3.6600647,3.6600494h-67.710907
			c-2.013031,0-3.6600647-1.6470222-3.6600647-3.6600494l0,0c0-2.0130281,1.6470337-3.6600504,3.6600647-3.6600504h67.710907
			C386.4981384,13.5673456,388.1451721,15.2143679,388.1451721,17.227396L388.1451721,17.227396z"/>
		<path class="st5" d="M416.6935425,30.586668c0,2.0130291-1.6470032,3.6600513-3.6600342,3.6600513h-96.2593079
			c-2.013031,0-3.6600647-1.6470222-3.6600647-3.6600513l0,0c0-2.0130253,1.6470337-3.6600494,3.6600647-3.6600494h96.2593079
			C415.0465393,26.9266186,416.6935425,28.5736427,416.6935425,30.586668L416.6935425,30.586668z"/>
		<path class="st5" d="M474.5223389,30.5866852c0,2.0130272-1.6470337,3.6600533-3.6600647,3.6600533h-46.4826355
			c-2.013031,0-3.6600342-1.6470261-3.6600342-3.6600533l0,0c0-2.0130272,1.6470032-3.6600494,3.6600342-3.6600494h46.4826355
			C472.8753052,26.9266357,474.5223389,28.573658,474.5223389,30.5866852L474.5223389,30.5866852z"/>
		<path class="st5" d="M511.1864014,30.586668c0,2.0130291-1.6470337,3.6600513-3.6600952,3.6600513h-25.6203003
			c-2.013031,0-3.6600647-1.6470222-3.6600647-3.6600513l0,0c0-2.0130253,1.6470337-3.6600494,3.6600647-3.6600494h25.6203003
			C509.5393677,26.9266186,511.1864014,28.5736427,511.1864014,30.586668L511.1864014,30.586668z"/>
		<path class="st5" d="M582.0199585,30.586668c0,2.0130291-1.6470337,3.6600513-3.6600952,3.6600513h-58.560791
			c-2.0130615,0-3.6600342-1.6470222-3.6600342-3.6600513l0,0c0-2.0130253,1.6469727-3.6600494,3.6600342-3.6600494h58.560791
			C580.3729248,26.9266186,582.0199585,28.5736427,582.0199585,30.586668L582.0199585,30.586668z"/>
		<path class="st5" d="M478.4944458,41.5670624c0,2.0130272,1.6470337,3.6600494,3.6600647,3.6600494h96.2593079
			c2.0130005,0,3.6600342-1.6470222,3.6600342-3.6600494l0,0c0-2.0130234-1.6470337-3.6600456-3.6600342-3.6600456h-96.2593079
			C480.1414795,37.9070168,478.4944458,39.554039,478.4944458,41.5670624L478.4944458,41.5670624z"/>
		<path class="st5" d="M420.6656494,41.5670815c0,2.0130272,1.6470337,3.6600494,3.6600647,3.6600494h46.482605
			c2.0130615,0,3.6600647-1.6470222,3.6600647-3.6600494l0,0c0-2.0130234-1.6470032-3.6600494-3.6600647-3.6600494h-46.482605
			C422.3126831,37.907032,420.6656494,39.5540581,420.6656494,41.5670815L420.6656494,41.5670815z"/>
		<path class="st5" d="M384.0016174,41.5670624c0,2.0130272,1.6470032,3.6600494,3.6600342,3.6600494h25.6203613
			c2.0130005,0,3.6600342-1.6470222,3.6600342-3.6600494l0,0c0-2.0130234-1.6470337-3.6600456-3.6600342-3.6600456h-25.6203613
			C385.6486206,37.9070168,384.0016174,39.554039,384.0016174,41.5670624L384.0016174,41.5670624z"/>
		<path class="st5" d="M313.1680908,41.5670624c0,2.0130272,1.6470032,3.6600494,3.6600342,3.6600494h58.560791
			c2.013031,0,3.6600342-1.6470222,3.6600342-3.6600494l0,0c0-2.0130234-1.6470032-3.6600456-3.6600342-3.6600456h-58.560791
			C314.815094,37.9070168,313.1680908,39.554039,313.1680908,41.5670624L313.1680908,41.5670624z"/>
		<path class="st5" d="M393.6891785,52.5474777c0,2.013031-1.6470337,3.6600533-3.6600342,3.6600533H316.828125
			c-2.013031,0-3.6600342-1.6470222-3.6600342-3.6600533l0,0c0-2.0130272,1.6470032-3.6600494,3.6600342-3.6600494h73.2010193
			C392.0421448,48.8874283,393.6891785,50.5344505,393.6891785,52.5474777L393.6891785,52.5474777z"/>
		<path class="st5" d="M445.6079407,52.3638725c0,2.0130272-1.6470032,3.6600494-3.6600647,3.6600494h-40.2605591
			c-2.0130005,0-3.6600342-1.6470222-3.6600342-3.6600494l0,0c0-2.0130272,1.6470337-3.6600494,3.6600342-3.6600494h40.2605591
			C443.9609375,48.7038231,445.6079407,50.3508453,445.6079407,52.3638725L445.6079407,52.3638725z"/>
		<path class="st5" d="M512.2208862,52.5474777c0,2.013031-1.6470947,3.6600533-3.6600952,3.6600533h-54.534729
			c-2.013031,0-3.6600647-1.6470222-3.6600647-3.6600533l0,0c0-2.0130272,1.6470337-3.6600494,3.6600647-3.6600494h54.534729
			C510.5737915,48.8874283,512.2208862,50.5344505,512.2208862,52.5474777L512.2208862,52.5474777z"/>
		<path class="st5" d="M582.0738525,52.5474777c0,2.013031-1.6470337,3.6600533-3.6600342,3.6600533h-58.560791
			c-2.0130615,0-3.6600342-1.6470222-3.6600342-3.6600533l0,0c0-2.0130272,1.6469727-3.6600494,3.6600342-3.6600494h58.560791
			C580.4268188,48.8874283,582.0738525,50.5344505,582.0738525,52.5474777L582.0738525,52.5474777z"/>
	</g>
	<g id="buttons_1_">
		<path id="reject_2_" class="st6" d="M530.6270142,83.7555466c0,4.0260468-3.2940063,7.3200912-7.3200684,7.3200912h-45.7506104
			c-4.026062,0-7.3200989-3.2940445-7.3200989-7.3200912l0,0c0-4.026062,3.2940369-7.3201065,7.3200989-7.3201065h45.7506104
			C527.3330078,76.4354401,530.6270142,79.7294846,530.6270142,83.7555466L530.6270142,83.7555466z"/>
		<path id="accept_1_" class="st7" d="M588.0474243,83.7555466c0,4.0260468-3.2940063,7.3200912-7.3200684,7.3200912h-37.6080322
			c-4.026001,0-7.3200684-3.2940445-7.3200684-7.3200912l0,0c0-4.026062,3.2940674-7.3201065,7.3200684-7.3201065h37.6080322
			C584.753418,76.4354401,588.0474243,79.7294846,588.0474243,83.7555466L588.0474243,83.7555466z"/>
	</g>
	<g id="groups_1_">
		<g id="group_1_">
			<g>
				<path id="head_1_" class="st5" d="M349.7686157,107.1952667c0,2.013031-1.6470642,3.6600494-3.6600952,3.6600494H316.828125
					c-2.013031,0-3.6600342-1.6470184-3.6600342-3.6600494l0,0c0-2.0130234,1.6470032-3.6600494,3.6600342-3.6600494h29.2803955
					C348.1215515,103.5352173,349.7686157,105.1822433,349.7686157,107.1952667L349.7686157,107.1952667z"/>
				<path class="st5" d="M373.1322021,118.2358551c0,1.0065155-0.8235168,1.8300247-1.8300171,1.8300247h-55.8040771
					c-1.0065002,0-1.8300476-0.8235092-1.8300476-1.8300247l0,0c0-1.0065155,0.8235474-1.8300247,1.8300476-1.8300247h55.8040771
					C372.3086853,116.4058304,373.1322021,117.2293396,373.1322021,118.2358551L373.1322021,118.2358551z"/>
				<path class="st5" d="M364.4657288,124.0656662c0,1.0065155-0.8235168,1.8300247-1.8300476,1.8300247h-47.1375732
					c-1.0065002,0-1.8300476-0.8235092-1.8300476-1.8300247l0,0c0-1.0065155,0.8235474-1.8300247,1.8300476-1.8300247h47.1375732
					C363.6422119,122.2356415,364.4657288,123.0591507,364.4657288,124.0656662L364.4657288,124.0656662z"/>
				<path class="st5" d="M354.0492859,129.8954773c0,1.0065155-0.8235168,1.8300171-1.8300171,1.8300171h-36.7211609
					c-1.0065002,0-1.8300476-0.8235016-1.8300476-1.8300171l0,0c0-1.0065155,0.8235474-1.8300171,1.8300476-1.8300171h36.7211609
					C353.225769,128.0654602,354.0492859,128.8889618,354.0492859,129.8954773L354.0492859,129.8954773z"/>
				<path class="st5" d="M366.3823242,135.7252808c0,1.0065155-0.8234863,1.8300323-1.8299866,1.8300323h-49.0542297
					c-1.0065002,0-1.8300476-0.8235168-1.8300476-1.8300323l0,0c0-1.0065155,0.8235474-1.8300171,1.8300476-1.8300171h49.0542297
					C365.5588379,133.8952637,366.3823242,134.7187653,366.3823242,135.7252808L366.3823242,135.7252808z"/>
				<path class="st5" d="M368.6322937,141.5550995c0,1.0065155-0.8235168,1.8300171-1.8300171,1.8300171h-51.3041687
					c-1.0065002,0-1.8300476-0.8235016-1.8300476-1.8300171l0,0c0-1.0065155,0.8235474-1.8300323,1.8300476-1.8300323h51.3041687
					C367.8087769,139.7250671,368.6322937,140.548584,368.6322937,141.5550995L368.6322937,141.5550995z"/>
				<path class="st5" d="M353.2993164,147.384903c0,1.0065155-0.8235168,1.8300171-1.8300171,1.8300171h-35.9711914
					c-1.0065002,0-1.8300476-0.8235016-1.8300476-1.8300171l0,0c0-1.0065155,0.8235474-1.8300171,1.8300476-1.8300171h35.9711914
					C352.4757996,145.5548859,353.2993164,146.3783875,353.2993164,147.384903L353.2993164,147.384903z"/>
				<path class="st5" d="M372.6322021,153.2147064c0,1.0065155-0.8235168,1.8300323-1.8300171,1.8300323h-55.3040771
					c-1.0065002,0-1.8300476-0.8235168-1.8300476-1.8300323l0,0c0-1.0065155,0.8235474-1.8300171,1.8300476-1.8300171h55.3040771
					C371.8086853,151.3846893,372.6322021,152.2081909,372.6322021,153.2147064L372.6322021,153.2147064z"/>
				<path class="st5" d="M343.150116,159.0445251c0,1.0065155-0.8234863,1.8300171-1.8299866,1.8300171h-25.8220215
					c-1.0065002,0-1.8300476-0.8235016-1.8300476-1.8300171l0,0c0-1.0065155,0.8235474-1.8300171,1.8300476-1.8300171h25.8220215
					C342.3266296,157.2145081,343.150116,158.0380096,343.150116,159.0445251L343.150116,159.0445251z"/>
			</g>
			<g>
				<path id="head_2_" class="st5" d="M421.2406616,107.1952667c0,2.013031-1.6470642,3.6600494-3.6600647,3.6600494h-29.280426
					c-2.013031,0-3.6600342-1.6470184-3.6600342-3.6600494l0,0c0-2.0130234,1.6470032-3.6600494,3.6600342-3.6600494h29.280426
					C419.5935974,103.5352173,421.2406616,105.1822433,421.2406616,107.1952667L421.2406616,107.1952667z"/>
				<path class="st5" d="M444.604248,118.2358551c0,1.0065155-0.8235168,1.8300247-1.8300476,1.8300247h-55.8040466
					c-1.0065002,0-1.8300171-0.8235092-1.8300171-1.8300247l0,0c0-1.0065155,0.8235168-1.8300247,1.8300171-1.8300247h55.8040466
					C443.7807312,116.4058304,444.604248,117.2293396,444.604248,118.2358551L444.604248,118.2358551z"/>
				<path class="st5" d="M435.9377747,124.0656662c0,1.0065155-0.8235168,1.8300247-1.8300476,1.8300247h-47.1375732
					c-1.0065002,0-1.8300171-0.8235092-1.8300171-1.8300247l0,0c0-1.0065155,0.8235168-1.8300247,1.8300171-1.8300247h47.1375732
					C435.1142578,122.2356415,435.9377747,123.0591507,435.9377747,124.0656662L435.9377747,124.0656662z"/>
				<path class="st5" d="M425.5213318,129.8954773c0,1.0065155-0.8234863,1.8300171-1.8299866,1.8300171h-36.7211914
					c-1.0065002,0-1.8300171-0.8235016-1.8300171-1.8300171l0,0c0-1.0065155,0.8235168-1.8300171,1.8300171-1.8300171h36.7211914
					C424.6978455,128.0654602,425.5213318,128.8889618,425.5213318,129.8954773L425.5213318,129.8954773z"/>
				<path class="st5" d="M437.8544312,135.7252808c0,1.0065155-0.8235474,1.8300323-1.8300781,1.8300323h-49.0541992
					c-1.0065002,0-1.8300171-0.8235168-1.8300171-1.8300323l0,0c0-1.0065155,0.8235168-1.8300171,1.8300171-1.8300171h49.0541992
					C437.0308838,133.8952637,437.8544312,134.7187653,437.8544312,135.7252808L437.8544312,135.7252808z"/>
				<path class="st5" d="M440.1043701,141.5550995c0,1.0065155-0.8235474,1.8300171-1.8300781,1.8300171h-51.3041382
					c-1.0065002,0-1.8300171-0.8235016-1.8300171-1.8300171l0,0c0-1.0065155,0.8235168-1.8300323,1.8300171-1.8300323h51.3041382
					C439.2808228,139.7250671,440.1043701,140.548584,440.1043701,141.5550995L440.1043701,141.5550995z"/>
				<path class="st5" d="M424.7713623,147.384903c0,1.0065155-0.8235168,1.8300171-1.8300171,1.8300171h-35.9711914
					c-1.0065002,0-1.8300171-0.8235016-1.8300171-1.8300171l0,0c0-1.0065155,0.8235168-1.8300171,1.8300171-1.8300171h35.9711914
					C423.9478455,145.5548859,424.7713623,146.3783875,424.7713623,147.384903L424.7713623,147.384903z"/>
				<path class="st5" d="M444.104248,153.2147064c0,1.0065155-0.8234863,1.8300323-1.8300171,1.8300323h-55.3040771
					c-1.0065002,0-1.8300171-0.8235168-1.8300171-1.8300323l0,0c0-1.0065155,0.8235168-1.8300171,1.8300171-1.8300171h55.3040771
					C443.2807617,151.3846893,444.104248,152.2081909,444.104248,153.2147064L444.104248,153.2147064z"/>
				<path class="st5" d="M414.6221924,159.0445251c0,1.0065155-0.8234863,1.8300171-1.8300171,1.8300171h-25.8220215
					c-1.0065002,0-1.8300171-0.8235016-1.8300171-1.8300171l0,0c0-1.0065155,0.8235168-1.8300171,1.8300171-1.8300171h25.8220215
					C413.7987061,157.2145081,414.6221924,158.0380096,414.6221924,159.0445251L414.6221924,159.0445251z"/>
				<path class="st6" d="M444.604248,107.1952667c0,2.4156342-1.9764404,4.392067-4.3920593,4.392067h-7.6860962
					c-2.4156799,0-4.3920593-1.9764328-4.3920593-4.392067l0,0c0-2.4156342,1.9763794-4.3920593,4.3920593-4.3920593h7.6860962
					C442.6278076,102.8032074,444.604248,104.7796326,444.604248,107.1952667L444.604248,107.1952667z"/>
				<circle class="st3" cx="432.7090759" cy="107.1952667" r="3.6600492"/>
			</g>
			<g>
				<path id="head_3_" class="st5" d="M492.7127075,107.1952667c0,2.013031-1.6470032,3.6600494-3.6600647,3.6600494h-29.2803955
					c-2.0130005,0-3.6600647-1.6470184-3.6600647-3.6600494l0,0c0-2.0130234,1.6470642-3.6600494,3.6600647-3.6600494h29.2803955
					C491.0657043,103.5352173,492.7127075,105.1822433,492.7127075,107.1952667L492.7127075,107.1952667z"/>
				<path class="st5" d="M516.0762939,118.2358551c0,1.0065155-0.8234863,1.8300247-1.8300171,1.8300247h-55.8040771
					c-1.0065308,0-1.8300171-0.8235092-1.8300171-1.8300247l0,0c0-1.0065155,0.8234863-1.8300247,1.8300171-1.8300247h55.8040771
					C515.2528076,116.4058304,516.0762939,117.2293396,516.0762939,118.2358551L516.0762939,118.2358551z"/>
				<path class="st5" d="M507.4098206,124.0656662c0,1.0065155-0.8234863,1.8300247-1.8299866,1.8300247h-47.1376343
					c-1.0065308,0-1.8300171-0.8235092-1.8300171-1.8300247l0,0c0-1.0065155,0.8234863-1.8300247,1.8300171-1.8300247h47.1376343
					C506.5863342,122.2356415,507.4098206,123.0591507,507.4098206,124.0656662L507.4098206,124.0656662z"/>
				<path class="st5" d="M496.9934082,129.8954773c0,1.0065155-0.8235474,1.8300171-1.8300476,1.8300171h-36.7211609
					c-1.0065308,0-1.8300171-0.8235016-1.8300171-1.8300171l0,0c0-1.0065155,0.8234863-1.8300171,1.8300171-1.8300171h36.7211609
					C496.1698608,128.0654602,496.9934082,128.8889618,496.9934082,129.8954773L496.9934082,129.8954773z"/>
				<path class="st5" d="M509.3264465,135.7252808c0,1.0065155-0.8235168,1.8300323-1.8300171,1.8300323h-49.0542297
					c-1.0065308,0-1.8300171-0.8235168-1.8300171-1.8300323l0,0c0-1.0065155,0.8234863-1.8300171,1.8300171-1.8300171h49.0542297
					C508.5029297,133.8952637,509.3264465,134.7187653,509.3264465,135.7252808L509.3264465,135.7252808z"/>
				<path class="st5" d="M511.5763855,141.5550995c0,1.0065155-0.8235168,1.8300171-1.8300171,1.8300171h-51.3041687
					c-1.0065308,0-1.8300171-0.8235016-1.8300171-1.8300171l0,0c0-1.0065155,0.8234863-1.8300323,1.8300171-1.8300323h51.3041687
					C510.7528687,139.7250671,511.5763855,140.548584,511.5763855,141.5550995L511.5763855,141.5550995z"/>
				<path class="st5" d="M496.2434387,147.384903c0,1.0065155-0.8235779,1.8300171-1.8300781,1.8300171h-35.9711609
					c-1.0065308,0-1.8300171-0.8235016-1.8300171-1.8300171l0,0c0-1.0065155,0.8234863-1.8300171,1.8300171-1.8300171h35.9711609
					C495.4198608,145.5548859,496.2434387,146.3783875,496.2434387,147.384903L496.2434387,147.384903z"/>
				<path class="st5" d="M515.5762939,153.2147064c0,1.0065155-0.8235474,1.8300323-1.8300171,1.8300323h-55.3040771
					c-1.0065308,0-1.8300171-0.8235168-1.8300171-1.8300323l0,0c0-1.0065155,0.8234863-1.8300171,1.8300171-1.8300171h55.3040771
					C514.7527466,151.3846893,515.5762939,152.2081909,515.5762939,153.2147064L515.5762939,153.2147064z"/>
				<path class="st5" d="M486.0942383,159.0445251c0,1.0065155-0.8235168,1.8300171-1.8300171,1.8300171h-25.8220215
					c-1.0065308,0-1.8300171-0.8235016-1.8300171-1.8300171l0,0c0-1.0065155,0.8234863-1.8300171,1.8300171-1.8300171h25.8220215
					C485.2707214,157.2145081,486.0942383,158.0380096,486.0942383,159.0445251L486.0942383,159.0445251z"/>
				<path class="st6" d="M516.0762939,107.1952667c0,2.4156342-1.9764404,4.392067-4.3920593,4.392067h-7.6861267
					c-2.4155884,0-4.3920593-1.9764328-4.3920593-4.392067l0,0c0-2.4156342,1.9764709-4.3920593,4.3920593-4.3920593h7.6861267
					C514.0998535,102.8032074,516.0762939,104.7796326,516.0762939,107.1952667L516.0762939,107.1952667z"/>
				<circle class="st3" cx="504.1811523" cy="107.1952667" r="3.6600642"/>
			</g>
			<g>
				<path id="head_4_" class="st5" d="M564.1847534,107.1952667c0,2.013031-1.6470337,3.6600494-3.6600342,3.6600494h-29.2803955
					c-2.0130615,0-3.6600952-1.6470184-3.6600952-3.6600494l0,0c0-2.0130234,1.6470337-3.6600494,3.6600952-3.6600494h29.2803955
					C562.5377197,103.5352173,564.1847534,105.1822433,564.1847534,107.1952667L564.1847534,107.1952667z"/>
				<path class="st5" d="M587.5483398,118.2358551c0,1.0065155-0.8234863,1.8300247-1.8299561,1.8300247h-55.8041382
					c-1.0064697,0-1.8300171-0.8235092-1.8300171-1.8300247l0,0c0-1.0065155,0.8235474-1.8300247,1.8300171-1.8300247h55.8041382
					C586.7248535,116.4058304,587.5483398,117.2293396,587.5483398,118.2358551L587.5483398,118.2358551z"/>
				<path class="st5" d="M578.8818359,124.0656662c0,1.0065155-0.8234253,1.8300247-1.8299561,1.8300247h-47.1376343
					c-1.0064697,0-1.8300171-0.8235092-1.8300171-1.8300247l0,0c0-1.0065155,0.8235474-1.8300247,1.8300171-1.8300247h47.1376343
					C578.0584106,122.2356415,578.8818359,123.0591507,578.8818359,124.0656662L578.8818359,124.0656662z"/>
				<path class="st5" d="M568.4654541,129.8954773c0,1.0065155-0.8235474,1.8300171-1.8300171,1.8300171h-36.7211914
					c-1.0064697,0-1.8300171-0.8235016-1.8300171-1.8300171l0,0c0-1.0065155,0.8235474-1.8300171,1.8300171-1.8300171h36.7211914
					C567.6419067,128.0654602,568.4654541,128.8889618,568.4654541,129.8954773L568.4654541,129.8954773z"/>
				<path class="st5" d="M580.7985229,135.7252808c0,1.0065155-0.8234863,1.8300323-1.8300171,1.8300323h-49.0542603
					c-1.0064697,0-1.8300171-0.8235168-1.8300171-1.8300323l0,0c0-1.0065155,0.8235474-1.8300171,1.8300171-1.8300171h49.0542603
					C579.9750366,133.8952637,580.7985229,134.7187653,580.7985229,135.7252808L580.7985229,135.7252808z"/>
				<path class="st5" d="M583.0484009,141.5550995c0,1.0065155-0.8234253,1.8300171-1.8299561,1.8300171h-51.3041992
					c-1.0064697,0-1.8300171-0.8235016-1.8300171-1.8300171l0,0c0-1.0065155,0.8235474-1.8300323,1.8300171-1.8300323h51.3041992
					C582.2249756,139.7250671,583.0484009,140.548584,583.0484009,141.5550995L583.0484009,141.5550995z"/>
				<path class="st5" d="M567.7154541,147.384903c0,1.0065155-0.8234863,1.8300171-1.8300171,1.8300171h-35.9711914
					c-1.0064697,0-1.8300171-0.8235016-1.8300171-1.8300171l0,0c0-1.0065155,0.8235474-1.8300171,1.8300171-1.8300171h35.9711914
					C566.8919678,145.5548859,567.7154541,146.3783875,567.7154541,147.384903L567.7154541,147.384903z"/>
				<path class="st5" d="M587.0483398,153.2147064c0,1.0065155-0.8234863,1.8300323-1.8300171,1.8300323h-55.3040771
					c-1.0064697,0-1.8300171-0.8235168-1.8300171-1.8300323l0,0c0-1.0065155,0.8235474-1.8300171,1.8300171-1.8300171h55.3040771
					C586.2248535,151.3846893,587.0483398,152.2081909,587.0483398,153.2147064L587.0483398,153.2147064z"/>
				<path class="st5" d="M557.5662842,159.0445251c0,1.0065155-0.8234863,1.8300171-1.8299561,1.8300171h-25.8220825
					c-1.0064697,0-1.8300171-0.8235016-1.8300171-1.8300171l0,0c0-1.0065155,0.8235474-1.8300171,1.8300171-1.8300171h25.8220825
					C556.7427979,157.2145081,557.5662842,158.0380096,557.5662842,159.0445251L557.5662842,159.0445251z"/>
				<path class="st6" d="M587.5483398,107.1952667c0,2.4156342-1.9764404,4.392067-4.3920288,4.392067h-7.6860962
					c-2.4156494,0-4.3920898-1.9764328-4.3920898-4.392067l0,0c0-2.4156342,1.9764404-4.3920593,4.3920898-4.3920593h7.6860962
					C585.5718994,102.8032074,587.5483398,104.7796326,587.5483398,107.1952667L587.5483398,107.1952667z"/>
				<circle class="st3" cx="575.6531982" cy="107.1952667" r="3.6600568"/>
			</g>
		</g>
	</g>
</g>
</svg>
