<?xml version="1.0" encoding="utf-8"?>
<!-- Generator: Adobe Illustrator 21.0.1, SVG Export Plug-In . SVG Version: 6.00 Build 0)  -->
<svg version="1.1" id="Ebene_1" xmlns="http://www.w3.org/2000/svg" xmlns:xlink="http://www.w3.org/1999/xlink" x="0px" y="0px"
	 width="18px" height="18px" viewBox="0 0 18 18" style="enable-background:new 0 0 18 18;" xml:space="preserve">
<style type="text/css">
	.st0{fill:#8AB4F8;}
	.st1{fill:#4285F4;}
	.st2{fill:#246FDB;}
</style>
<g>
	<polygon class="st0" points="10.2,15.4 7.8,13.1 13,7.7 15.5,10.2 	"/>
	<path class="st1" d="M10.2,4.9L7.8,2.5L2.5,7.7c-0.7,0.7-0.7,1.8,0,2.5l5.2,5.2l2.5-2.3L6.2,9L10.2,4.9z"/>
	<path class="st0" d="M15.5,7.8l-5.2-5.2c-0.7-0.7-1.8-0.7-2.5,0S7.1,4.3,7.8,5l5.2,5.2c0.7,0.7,1.8,0.7,2.5,0
		C16.2,9.6,16.2,8.4,15.5,7.8z"/>
	<circle class="st2" cx="9" cy="14.3" r="1.7"/>
</g>
</svg>
