<?xml version="1.0" encoding="utf-8"?>
<!-- Generator: Adobe Illustrator 21.0.1, SVG Export Plug-In . SVG Version: 6.00 Build 0)  -->
<svg version="1.1" id="Ebene_1" xmlns="http://www.w3.org/2000/svg" xmlns:xlink="http://www.w3.org/1999/xlink" x="0px" y="0px"
	 width="18px" height="18px" viewBox="0 0 18 18" style="enable-background:new 0 0 18 18;" xml:space="preserve">
<style type="text/css">
	.st0{fill:#565652;}
	.st1{fill:#EAE8DE;}
	.st2{fill:#3780F4;}
	.st3{fill:#F2F2F2;}
	.st4{fill:#2158B5;}
	.st5{fill:#B2CAF4;}
	.st6{fill:#2C72EA;}
</style>
<g id="_x23_565652ff">
	<path class="st0" d="M6,3c0.2,0,0.5,0,0.7,0c0,0.2,0,0.5,0,0.7c0.3,0,0.7,0,1,0c0.5,0,1,0,1.5,0c0,0.2,0,0.5,0,0.7
		c-0.3,0-0.7,0-1,0c0,0.4-0.1,0.8-0.3,1.2c-0.3,0.5-0.6,1-1,1.4c0.2,0.2,0.4,0.3,0.6,0.5C7.4,7.7,7.3,8,7.2,8.2
		C6.9,8,6.7,7.8,6.4,7.6C6.1,7.8,5.9,7.9,5.7,8.1C5.2,8.4,4.8,8.7,4.3,8.9C4.3,8.9,4.2,9,4.1,9C3.9,8.8,3.8,8.6,3.6,8.4
		C4,8.3,4.3,8.2,4.6,8c0.4-0.2,0.8-0.6,1.2-0.9C5.6,6.9,5.4,6.6,5.2,6.3C5,6,4.8,5.6,4.6,5.3c0.3,0,0.6,0,0.9,0
		c0.2,0.5,0.5,1,0.9,1.4c0.1-0.1,0.2-0.2,0.3-0.3c0.4-0.5,0.8-1.1,0.8-1.8c-1.3,0-2.7,0-4,0c0-0.3,0-0.5,0-0.8c0.8,0,1.7,0,2.5,0
		C6,3.5,6,3.3,6,3z"/>
</g>
<path class="st1" d="M10.1,2C9.9,2,9.7,2,9.5,2C7.3,2,5.1,2,2.9,2C2.4,2,2,2.4,2,2.9c0,2.2,0,4.4,0,6.6c0,0.1,0,0.2,0,0.3
	c0,0.3,0.2,0.6,0.5,0.8c0.2,0.1,0.4,0.2,0.7,0.1c0.5-0.5,1-1,1.5-1.5c0.1,0.1,0.2,0.2,0.3,0.3c0.4,0.4,0.8,0.8,1.2,1.2
	c0.4,0,0.7,0,1.1,0c0-0.8,0-1.7,0-2.5C6.9,8,6.7,7.8,6.4,7.6C6.1,7.8,5.9,7.9,5.7,8.1C5.2,8.4,4.8,8.7,4.3,8.9C4.3,8.9,4.2,9,4.1,9
	C3.9,8.8,3.8,8.6,3.6,8.4C4,8.3,4.3,8.2,4.6,8c0.4-0.2,0.8-0.6,1.2-0.9C5.6,6.9,5.4,6.6,5.2,6.3C5,6,4.8,5.6,4.6,5.3
	c0.3,0,0.6,0,0.9,0c0.2,0.5,0.5,1,0.9,1.4c0.1-0.1,0.2-0.2,0.3-0.3c0.4-0.5,0.8-1.1,0.8-1.8c-1.3,0-2.7,0-4,0c0-0.3,0-0.5,0-0.8
	c0.8,0,1.7,0,2.5,0C6,3.5,6,3.3,6,3c0.2,0,0.5,0,0.7,0c0,0.2,0,0.5,0,0.7c0.3,0,0.7,0,1,0c0.5,0,1,0,1.5,0c0,0.2,0,0.5,0,0.7
	c-0.3,0-0.7,0-1,0c0,0.4-0.1,0.8-0.3,1.2c-0.3,0.5-0.6,1-1,1.4c0.2,0.2,0.4,0.3,0.6,0.5C7.7,7.4,8,7.2,8.2,7.3c0.8,0,1.7,0,2.5,0
	c0-1.4,0-2.9,0-4.3C10.7,2.5,10.4,2.2,10.1,2z"/>
<g id="_x23_3780f4ff">
	<path class="st2" d="M3.1,10.7c0.5-0.5,1-1,1.5-1.5c0.1,0.1,0.2,0.2,0.3,0.3c0.4,0.4,0.8,0.8,1.2,1.2c-0.2,0-0.4,0-0.6,0
		c0,0.6,0,1.2,0,1.7c-0.6-0.6-1.2-1.2-1.7-1.7C3.5,10.8,3.3,10.8,3.1,10.7z"/>
</g>
<g id="_x23_f2f2f2ff">
	<path class="st3" d="M11.1,9.3c0.2,0,0.3,0,0.5,0c0.2,0,0.4,0,0.5,0c0.3,0.8,0.6,1.6,0.9,2.3c0.3,0.8,0.6,1.6,1,2.4
		c-0.3,0-0.6,0-0.9,0c0-0.1-0.1-0.1-0.1-0.2c-0.1-0.3-0.2-0.6-0.3-0.9c-0.7,0-1.5,0-2.2,0c-0.1,0.4-0.2,0.8-0.4,1.1
		c-0.3,0-0.6,0-0.9,0c0.4-1,0.8-1.9,1.1-2.9C10.6,10.5,10.9,9.9,11.1,9.3 M10.8,12.2c0.6,0,1.2,0,1.7,0c-0.3-0.7-0.6-1.5-0.9-2.2
		C11.3,10.8,11,11.5,10.8,12.2z"/>
</g>
<g id="_x23_2158b5ff">
	<path class="st4" d="M3.8,10.7c0.6,0.6,1.2,1.2,1.7,1.7l0,0c-0.4,0-0.8,0-1.2,0c-0.2,0-0.3,0-0.5,0l0,0C3.8,11.9,3.7,11.3,3.8,10.7
		z"/>
</g>
<g id="_x23_b2caf4ff">
	<path class="st5" d="M7.3,11.9C7.6,12.2,8,12.6,8.4,13c0.1,0.1,0.3,0.3,0.4,0.4c-0.5,0.5-1,1-1.5,1.5c0-0.2,0-0.4,0-0.6
		c-0.6,0-1.1,0-1.7,0c0,0-0.1,0-0.1-0.1c-0.6-0.6-1.1-1.1-1.7-1.7c0.2,0,0.3,0,0.5,0c0.4,0,0.8,0,1.2,0c0.6,0,1.2,0,1.7,0
		C7.2,12.3,7.2,12.1,7.3,11.9z"/>
</g>
<g>
	<path class="st6" d="M10.8,12.2c0.6,0,1.2,0,1.7,0c-0.3-0.7-0.6-1.5-0.9-2.2C11.3,10.8,11,11.5,10.8,12.2z"/>
	<path class="st6" d="M16,8.7c0-0.2,0-0.5,0-0.7c-0.1-0.4-0.5-0.7-0.9-0.7c-0.5,0-1,0-1.5,0c-0.6,0-1.1,0-1.7,0c-0.4,0-0.7,0-1.1,0
		c-0.8,0-1.7,0-2.5,0C8,7.2,7.7,7.4,7.5,7.5C7.4,7.7,7.3,8,7.2,8.2c0,0.8,0,1.7,0,2.5c0,0.4,0,0.7,0,1.1l0,0C7.6,12.2,8,12.6,8.4,13
		c0.1,0.1,0.3,0.3,0.4,0.4c-0.5,0.5-1,1-1.5,1.5c0,0.1,0,0.2,0,0.3C7.4,15.7,7.8,16,8.2,16c0.7,0,1.4,0,2,0c0.7,0,1.4,0,2.1,0
		c0.9,0,1.8,0,2.7,0c0.5,0,0.9-0.5,0.9-1c0-0.9,0-1.8,0-2.7C16,11.1,16,9.9,16,8.7z M13.1,14c0-0.1-0.1-0.1-0.1-0.2
		c-0.1-0.3-0.2-0.6-0.3-0.9c-0.7,0-1.5,0-2.2,0c-0.1,0.4-0.2,0.8-0.4,1.1c-0.3,0-0.6,0-0.9,0c0.4-1,0.8-1.9,1.1-2.9
		c0.2-0.6,0.5-1.2,0.7-1.9c0.2,0,0.3,0,0.5,0c0.2,0,0.4,0,0.5,0c0.3,0.8,0.6,1.6,0.9,2.3c0.3,0.8,0.6,1.6,1,2.4
		C13.7,14,13.4,14,13.1,14z"/>
</g>
</svg>
