<?xml version="1.0" encoding="utf-8"?>
<!-- Generator: Adobe Illustrator 22.1.0, SVG Export Plug-In . SVG Version: 6.00 Build 0)  -->
<svg version="1.1" id="Ebene_1" xmlns="http://www.w3.org/2000/svg" xmlns:xlink="http://www.w3.org/1999/xlink" x="0px" y="0px"
	 width="18px" height="18px" viewBox="0 0 18 18" style="enable-background:new 0 0 18 18;" xml:space="preserve">
<style type="text/css">
	.st0{fill:#333333;}
	.st1{fill:#FFFFFF;}
</style>
<circle class="st0" cx="9" cy="9" r="7"/>
<path class="st1" d="M7.1,11.4l-0.3,0.3c0,0-0.1,0.1-0.1,0.1s-0.1,0-0.1-0.1L4.1,9.1C4,9.1,4,9,4,9s0-0.1,0.1-0.1l2.5-2.5
	c0,0,0.1-0.1,0.1-0.1s0.1,0,0.1,0.1l0.3,0.3c0,0,0.1,0.1,0.1,0.1s0,0.1-0.1,0.1L5,9l2.1,2.1c0,0,0.1,0.1,0.1,0.1S7.2,11.4,7.1,11.4z
	 M10.4,5.6l-2,7.1c0,0,0,0.1-0.1,0.1c0,0-0.1,0-0.1,0l-0.3-0.1c0,0-0.1,0-0.1-0.1c0,0,0-0.1,0-0.1l2-7.1c0,0,0-0.1,0.1-0.1
	c0,0,0.1,0,0.1,0l0.3,0.1c0,0,0.1,0,0.1,0.1S10.4,5.5,10.4,5.6z M13.9,9.1l-2.5,2.5c0,0-0.1,0.1-0.1,0.1s-0.1,0-0.1-0.1l-0.3-0.3
	c0,0-0.1-0.1-0.1-0.1s0-0.1,0.1-0.1L13,9l-2.1-2.1c0,0-0.1-0.1-0.1-0.1s0-0.1,0.1-0.1l0.3-0.3c0,0,0.1-0.1,0.1-0.1s0.1,0,0.1,0.1
	l2.5,2.5C14,8.9,14,9,14,9S14,9.1,13.9,9.1z"/>
</svg>
