<?xml version="1.0" encoding="utf-8"?>
<!-- Generator: Adobe Illustrator 21.0.1, SVG Export Plug-In . SVG Version: 6.00 Build 0)  -->
<svg version="1.1" id="Ebene_1" xmlns="http://www.w3.org/2000/svg" xmlns:xlink="http://www.w3.org/1999/xlink" x="0px" y="0px"
	 width="18px" height="18px" viewBox="0 0 18 18" style="enable-background:new 0 0 18 18;" xml:space="preserve">
<style type="text/css">
	.st0{fill:#3B5998;}
	.st1{fill:#FFFFFF;}
</style>
<g>
	<path class="st0" d="M16,15.1c0,0.5-0.4,0.9-0.9,0.9H2.9C2.4,16,2,15.6,2,15.1V2.9C2,2.4,2.4,2,2.9,2h12.3C15.6,2,16,2.4,16,2.9
		V15.1z"/>
	<path id="f" class="st1" d="M11.6,16v-5.3h1.8l0.4-2.2h-2.2V7.7c0-0.9,0.4-1.3,1.3-1.3h0.9V4.2c-0.4,0-1,0-1.8,0
		c-1.6,0-2.6,1.3-2.6,3.1v1.3H7.7v2.2h1.8V16H11.6z"/>
</g>
</svg>
