<?xml version="1.0" encoding="utf-8"?>
<!-- Generator: Adobe Illustrator 21.0.1, SVG Export Plug-In . SVG Version: 6.00 Build 0)  -->
<svg version="1.1" id="Ebene_1" xmlns="http://www.w3.org/2000/svg" xmlns:xlink="http://www.w3.org/1999/xlink" x="0px" y="0px"
	 width="18px" height="18px" viewBox="0 0 18 18" style="enable-background:new 0 0 18 18;" xml:space="preserve">
<style type="text/css">
	.st0{fill:#95C748;}
	.st1{fill:#35BFC0;}
	.st2{fill:#3253A0;}
	.st3{fill:#F38334;}
	.st4{fill:#3152A0;}
</style>
<g>
	<path class="st0" d="M15.7,9.9L15.7,9.9C15.6,9.8,15.6,9.8,15.7,9.9L13.1,6L9.9,8.4l2.4,3.6l0,0l0,0c0.6,0.9,1.9,1.1,2.8,0.5
		C16,12,16.3,10.8,15.7,9.9"/>
	<path class="st1" d="M6,10.9c0-1.1-0.9-2-2-2s-2,0.9-2,2c0,1.1,0.9,2,2,2h0C5.1,12.9,6,12,6,10.9"/>
</g>
<g>
	<g>
		<path class="st2" d="M13.5,7.1c0-1.1-0.9-2-2-2c-1.1,0-2,0.9-2,2c0,0.4,0.1,0.8,0.3,1.1L8.2,6C7.6,5.1,6.4,4.8,5.4,5.3
			C5.2,5.5,5,5.7,4.8,6L2.4,9.8C3,8.9,4.2,8.6,5.1,9.3c0.2,0.2,0.4,0.4,0.6,0.6l1.6,2.2c0.7,0.9,1.9,1.1,2.8,0.4
			c0.2-0.1,0.3-0.3,0.4-0.4l0,0c0-0.1,0.1-0.1,0.1-0.2l2.4-3.7C13.3,7.9,13.4,7.5,13.5,7.1 M10.1,8.5L10.1,8.5L10.1,8.5 M10.2,8.7
			L10.2,8.7L10.2,8.7 M10.7,8.9L10.7,8.9L10.7,8.9 M10.9,9L10.9,9L10.9,9 M11.1,9.1L11.1,9.1L11.1,9.1 M12.8,8.6L12.8,8.6L12.8,8.6
			 M11.7,9.1L11.7,9.1L11.7,9.1 M11.9,9L11.9,9L11.9,9 M12.1,9C12.2,8.9,12.2,8.9,12.1,9C12.2,8.9,12.2,8.9,12.1,9 M12.6,8.7
			L12.6,8.7L12.6,8.7 M12.9,8.4L12.9,8.4L12.9,8.4 M2.3,9.9C2.3,9.9,2.3,9.8,2.3,9.9L2.3,9.9L2.3,9.9z"/>
	</g>
	<g>
		<g>
			<path class="st3" d="M13.4,7.1c0-1.1-0.9-2-2-2c-1.1,0-2,0.9-2,2c0,1.1,0.9,2,2,2c0,0,0,0,0,0C12.5,9.1,13.4,8.2,13.4,7.1"/>
			<path class="st4" d="M11.4,9.1c-0.7,0-1.3-0.3-1.7-0.9L8.2,6C7.6,5.1,6.4,4.8,5.4,5.3C5.2,5.5,5,5.7,4.8,6L2.3,9.8
				C3,8.9,4.2,8.6,5.1,9.3c0.2,0.2,0.4,0.4,0.6,0.6l1.6,2.2c0.7,0.9,1.9,1.1,2.8,0.4c0.2-0.1,0.3-0.3,0.4-0.4l0,0l0.1-0.2l2.4-3.7
				C12.7,8.8,12.1,9.1,11.4,9.1 M2.3,9.9L2.3,9.9L2.3,9.9z"/>
		</g>
	</g>
</g>
</svg>
