<?xml version="1.0" encoding="utf-8"?>
<!-- Generator: Adobe Illustrator 21.0.1, SVG Export Plug-In . SVG Version: 6.00 Build 0)  -->
<svg version="1.1" id="Ebene_1" xmlns="http://www.w3.org/2000/svg" xmlns:xlink="http://www.w3.org/1999/xlink" x="0px" y="0px"
	 width="18px" height="18px" viewBox="0 0 18 18" style="enable-background:new 0 0 18 18;" xml:space="preserve">
<style type="text/css">
	.st0{fill:#34495E;}
	.st1{fill:#2C3E50;}
	.st2{fill:#BDC3C7;}
	.st3{fill:#C0392B;}
	.st4{fill:#95A5A6;}
</style>
<g transform="translate(0 -1028.4)">
	<path class="st0" d="M15.4,1037.4c0,3.5-2.9,6.4-6.4,6.4c-3.5,0-6.4-2.9-6.4-6.4c0-3.5,2.9-6.4,6.4-6.4
		C12.5,1031,15.4,1033.9,15.4,1037.4z"/>
	<path class="st1" d="M9,1031c-3.9,0-7,3.1-7,7h1.2c0-3.2,2.6-5.8,5.8-5.8c3.2,0,5.8,2.6,5.8,5.8H16C16,1034.1,12.9,1031,9,1031z"/>
	<path class="st2" d="M9.6,1036.8v1.2h0.6h3.5c0.3,0,0.6-0.3,0.6-0.6s-0.3-0.6-0.6-0.6h-3.5H9.6z"/>
	<path class="st2" d="M9,1033.3c-0.3,0-0.6,0.2-0.6,0.6v2.3v0.6h1.2v-0.6v-2.3C9.6,1033.6,9.3,1033.3,9,1033.3z"/>
	
		<rect x="5.1" y="1039" transform="matrix(0.7071 -0.7071 0.7071 0.7071 -732.7686 309.4543)" class="st3" width="4.1" height="0.6"/>
	<path class="st2" d="M9,1036.2c-0.6,0-1.2,0.5-1.2,1.2s0.5,1.2,1.2,1.2s1.2-0.5,1.2-1.2S9.6,1036.2,9,1036.2z M9,1036.8
		c0.3,0,0.6,0.2,0.6,0.6c0,0.3-0.3,0.6-0.6,0.6s-0.6-0.3-0.6-0.6C8.4,1037.1,8.7,1036.8,9,1036.8z"/>
	<path class="st4" d="M9,1030.4c-3.9,0-7,3.1-7,7c0,3.8,3.1,7,7,7c3.9,0,7-3.2,7-7C16,1033.5,12.9,1030.4,9,1030.4z M9,1031.6
		c3.2,0,5.8,2.6,5.8,5.8c0,3.2-2.6,5.8-5.8,5.8c-3.2,0-5.8-2.6-5.8-5.8C3.2,1034.1,5.8,1031.6,9,1031.6z"/>
	<path class="st1" d="M9.6,1037.4c0,0.3-0.3,0.6-0.6,0.6s-0.6-0.3-0.6-0.6s0.3-0.6,0.6-0.6S9.6,1037.1,9.6,1037.4z"/>
	<path class="st4" d="M10,1036.8c0.1,0.2,0.2,0.3,0.2,0.6c0,0.2-0.1,0.4-0.2,0.6h0.2h0.5c0.1-0.2,0.1-0.4,0.1-0.6
		c0-0.2,0-0.4-0.1-0.6h-0.5H10z"/>
</g>
</svg>
