<?xml version="1.0" encoding="utf-8"?>
<!-- Generator: Adobe Illustrator 21.0.1, SVG Export Plug-In . SVG Version: 6.00 Build 0)  -->
<svg version="1.1" id="Ebene_1" xmlns="http://www.w3.org/2000/svg" xmlns:xlink="http://www.w3.org/1999/xlink" x="0px" y="0px"
	 width="18px" height="18px" viewBox="0 0 18 18" style="enable-background:new 0 0 18 18;" xml:space="preserve">
<style type="text/css">
	.st0{fill:#FFC107;}
	.st1{fill:#FFA000;}
</style>
<g>
	<path class="st0" d="M11.2,6.4H6.8c-0.2,0-0.4,0.2-0.4,0.4v8.7c0,0.2,0.2,0.4,0.4,0.4h4.4c0.2,0,0.4-0.2,0.4-0.4V6.8
		C11.6,6.6,11.4,6.4,11.2,6.4L11.2,6.4z"/>
	<path class="st0" d="M6.8,10.8H2.5c-0.2,0-0.4,0.2-0.4,0.4v4.4C2,15.8,2.2,16,2.5,16h4.4c0.2,0,0.4-0.2,0.4-0.4v-4.4
		C7.3,10.9,7.1,10.8,6.8,10.8L6.8,10.8z"/>
	<path class="st1" d="M15.5,2h-4.4c-0.2,0-0.4,0.2-0.4,0.4v13.1c0,0.2,0.2,0.4,0.4,0.4h4.4c0.2,0,0.4-0.2,0.4-0.4V2.4
		C16,2.2,15.8,2,15.5,2L15.5,2z"/>
</g>
</svg>
