<?xml version="1.0" encoding="utf-8"?>
<!-- Generator: Adobe Illustrator 22.1.0, SVG Export Plug-In . SVG Version: 6.00 Build 0)  -->
<svg version="1.1" id="Ebene_1" xmlns="http://www.w3.org/2000/svg" xmlns:xlink="http://www.w3.org/1999/xlink" x="0px" y="0px"
	 width="18px" height="18px" viewBox="0 0 18 18" style="enable-background:new 0 0 18 18;" xml:space="preserve">
<style type="text/css">
	.st0{fill:#333333;}
	.st1{fill:#74B739;}
</style>
<path class="st0" d="M10.9,4.2L8,14.1C8,14.2,8,14.2,8,14.3c-0.1,0-0.1,0-0.2,0l-0.5-0.2c-0.1,0-0.1-0.1-0.2-0.1c0-0.1,0-0.1,0-0.2
	L10,3.9c0-0.1,0.1-0.1,0.1-0.2c0.1,0,0.1,0,0.2,0l0.5,0.2c0.1,0,0.1,0.1,0.2,0.1C10.9,4.1,10.9,4.1,10.9,4.2z M15.9,9.2l-3.6,3.6
	c-0.1,0.1-0.1,0.1-0.2,0.1c-0.1,0-0.1,0-0.2-0.1l-0.3-0.4c-0.1-0.1-0.1-0.1-0.1-0.2s0-0.1,0.1-0.2l3-3l-3-3
	c-0.1-0.1-0.1-0.1-0.1-0.2c0-0.1,0-0.1,0.1-0.2L12,5.3c0.1-0.1,0.1-0.1,0.2-0.1c0.1,0,0.1,0,0.2,0.1l3.6,3.6C16,8.9,16,8.9,16,9
	S16,9.1,15.9,9.2z"/>
<path class="st1" d="M6.4,12.3L6,12.7c-0.1,0.1-0.1,0.1-0.2,0.1c-0.1,0-0.1,0-0.2-0.1L2.1,9.2C2,9.1,2,9.1,2,9s0-0.1,0.1-0.2
	l3.6-3.6c0.1-0.1,0.1-0.1,0.2-0.1c0.1,0,0.1,0,0.2,0.1l0.4,0.4c0.1,0.1,0.1,0.1,0.1,0.2c0,0.1,0,0.1-0.1,0.2l-3,3l3,3
	c0.1,0.1,0.1,0.1,0.1,0.2C6.5,12.2,6.5,12.3,6.4,12.3z"/>
</svg>
