<!DOCTYPE svg PUBLIC "-//W3C//DTD SVG 1.1//EN" "http://www.w3.org/Graphics/SVG/1.1/DTD/svg11.dtd"><svg xmlns="http://www.w3.org/2000/svg" width="457.3" height="132" viewBox="23.8 187.8 457.3 132"><g fill="#FFF"><path d="M282 205h21c-1 7.6-.9 15.3-.9 23v57c0 6 .2 12 .9 18h-21c1-8.3.9-16.6.9-25v-50c0-7.7 0-15.4-1-23zM54 234a50.3 50.3 0 0 1 28-4.8c7.7.4 16 2.5 21.4 8.4 3 3.4 4 8 4.3 12.4.7 17.6-.6 35.4 1 53H89.3v-6.5a33.3 33.3 0 0 1-16.2 7c-9 1-19 .8-26.3-5.3a21.7 21.7 0 0 1 2-32.4c11.6-8.7 26.7-8.1 40.5-8.9 0-4 .6-9.3-3.5-11.7-5.4-3-12.2-2.4-17.9-.4-3.5 1.3-5.3 4.6-6.7 7.9l-19-3.2c2-6.3 6-12.2 11.9-15.4m10.3 40.3c-4.4 2-6.3 8-3.8 12 2 3 6 3.8 9.4 3.6 6.4-.3 13-2.8 17-8 2.6-3.3 2.3-7.8 2.3-11.8-8.4.4-17.2.4-25 4.2zM213 234c9-5.1 20-5.3 30.1-4.6 8 .6 16.6 3.5 21 10.6 3.4 6 2.6 13.3 2.8 20 .2 14.4-.6 28.7.8 43h-19.4v-6.5a33.4 33.4 0 0 1-16.2 7c-8.9 1-19 .8-26.2-5.3a21.7 21.7 0 0 1 2-32.4c11.5-8.7 26.6-8.1 40.4-8.9 0-4 .6-9.3-3.5-11.7-5.4-3-12.2-2.4-17.9-.4-3.5 1.3-5.3 4.6-6.7 7.9l-19-3.2c2-6.3 6-12.2 11.8-15.4m10.4 40.3c-4.4 2-6.3 8-3.7 12 2 3 6 3.8 9.3 3.6 6.4-.2 13-2.8 17-8 2.6-3.3 2.3-7.8 2.3-11.8-8.4.4-17.2.4-25 4.2zM326.1 237.2a37.2 37.2 0 0 1 29-7.8c9.2 1 18 5.7 23 13.5 6 8.5 7 19 7.5 29.1h-52.8c.5 4.2 1.4 8.6 4.3 11.9 5.1 6.2 14.6 7.3 21.8 4.2 4-1.8 6.8-5.6 8.4-9.7l17.3 5.2a33.7 33.7 0 0 1-12.4 15.5 42 42 0 0 1-28.4 5.4c-7.8-1-15.5-4.4-20.7-10.5a42.3 42.3 0 0 1-9-31 37 37 0 0 1 12-25.8m15.8 8.6c-4.8 2.3-7.4 7.3-8.8 12.3h33.3c-.8-2.9-1.4-5.9-3.3-8.2-4.8-6.3-14.3-7.3-21.2-4zM117 231c7.4.2 15-.4 22.3.3 1.3 7.8 4.2 15.3 6.5 22.9 3.3 10.3 6.7 20.5 9.9 30.8 4.7-15.6 10-31 14.7-46.5.8-2.4 1.3-5 1.6-7.5h22.3c-7.8 17.9-14.5 36.3-21.7 54.5-2.2 5.8-4.8 11.4-6 17.5h-21.7c-2.7-10-7.2-19.4-10.7-29.1-5.7-14.4-11-28.8-17.2-42.9zM393 231H416c3.3 7.6 8.2 14.3 12.8 21.2 4.4-7 9.5-13.6 13-21.2H464c-8.5 11.1-16.4 22.7-24.5 34.2 9 12.7 17.7 25.6 27.3 37.8h-23.5c-3.9-8.7-9.7-16.2-14.8-24.2-5 8-10.7 15.7-15 24.2h-23.2c9.8-12.1 18.3-25.1 27.3-37.8-8.2-11.4-16-23.2-24.6-34.2z"/></g></svg>